<svg width="185" height="28" viewBox="0 0 185 28" fill="none" xmlns="http://www.w3.org/2000/svg">
<path d="M20.5895 7.68515C22.8893 7.68515 22.8893 10.7436 22.8893 14.3046C22.8893 17.8657 20.477 24.8046 14.6731 24.8046C8.86918 24.8046 6.94663 21.8646 5.07124 19.3159C3.19584 16.7672 0.478883 12.4631 2.96369 10.3308C2.33977 6.57233 4.59967 6.84874 4.59967 6.84874C4.59967 6.84874 4.59967 4.77387 6.22476 3.94464C7.80996 3.13695 9.28633 4.77387 9.28633 4.77387C9.28633 4.77387 11.8618 3.33438 13.5994 5.03951C15.3369 6.74464 17.4953 10.1908 17.4953 10.1908C17.4953 10.1908 18.2933 7.68515 20.5895 7.68515Z" fill="#FFD14D"/>
<path d="M20.908 18.9747C19.6529 21.868 16.8416 23.767 13.6603 23.7813C10.9289 23.7813 8.64357 21.8465 7.19984 20.206C5.64729 18.2603 4.32328 16.1424 3.2568 13.8952C2.88318 12.8434 2.85416 12.2008 3.2568 11.8562C3.65945 11.508 4.46837 11.7629 4.90367 12.2978C5.33896 12.8326 8.0922 16.4296 8.17563 16.609C8.26269 16.7921 8.46945 16.8783 8.66533 16.8208C8.83945 16.6772 8.86484 16.4188 8.71975 16.2429L4.23259 9.92853C3.82994 9.3793 3.94965 8.61109 4.50465 8.20904C4.51916 8.20186 4.53004 8.19109 4.54092 8.18391C5.12857 7.78545 5.92661 7.92186 6.34739 8.48904L10.1526 13.6331C10.2396 13.809 10.4573 13.8844 10.635 13.7947C10.6423 13.7911 10.6532 13.7875 10.6604 13.7803C10.8418 13.6547 10.7874 13.4034 10.6604 13.2239L6.36916 6.75519C5.96651 6.20596 6.08622 5.43776 6.64122 5.03571C6.65573 5.02853 6.66661 5.01776 6.67749 5.01058C7.26151 4.60853 8.0668 4.74135 8.48396 5.31571L13.1162 12.0249C13.2432 12.1937 13.479 12.3301 13.6567 12.2044C13.8381 12.0788 13.7619 11.8167 13.6567 11.6265C13.0727 10.668 11.0413 7.22904 10.704 6.62237C10.3666 6.01571 10.2904 5.40186 10.704 5.11827C11.1175 4.83468 12.0316 4.98186 13.1924 6.17006C14.6071 7.88955 15.8622 9.72391 16.9541 11.6588C17.0484 11.8203 17.1608 11.9639 17.295 12.0896C17.7412 12.5203 18.0496 12.4378 18.2418 12.0249C18.4341 11.6121 18.688 8.70083 20.3675 8.76545C20.9733 8.76545 21.4303 9.36494 21.6516 10.869C22.1631 13.5829 21.9055 16.3901 20.908 18.9747ZM23.8498 10.5603C23.5415 7.99365 22.3408 6.66904 20.4908 6.61519C19.2502 6.5434 18.0641 7.12853 17.3785 8.1516C16.6312 6.93468 15.786 5.77878 14.8501 4.70186C12.4923 2.18904 10.5988 2.51571 9.53592 3.2516C8.32073 2.3793 6.68112 2.34699 5.43328 3.17622C4.45386 3.82596 3.87347 4.92083 3.89161 6.09109C2.81426 6.54699 2.04524 7.50545 1.8421 8.64699C1.74053 9.1316 1.74053 9.63417 1.8421 10.1188L1.66073 10.2767C0.597884 11.3285 0.376609 12.7788 1.10935 14.7244C2.27739 17.1978 3.74651 19.5239 5.47681 21.6562C8.01602 24.5388 10.791 25.9998 13.6277 25.9998C17.7231 25.9962 21.4158 23.566 23.001 19.8254C24.1582 16.8675 24.4593 13.6475 23.8716 10.528" fill="black"/>
<path d="M18.5577 18.5019C17.9156 17.1844 17.5565 15.7557 17.4948 14.2947C17.4948 13.986 17.2409 13.7383 16.9326 13.7383C16.6279 13.7383 16.3812 13.9824 16.3812 14.2839C16.3812 14.2875 16.3812 14.2911 16.3812 14.2947C16.4393 15.9352 16.8419 17.547 17.5601 19.026C17.7089 19.2952 18.0498 19.3957 18.3255 19.2485C18.594 19.1049 18.6992 18.7747 18.5504 18.5091C18.5504 18.5055 18.5468 18.5055 18.5468 18.5019H18.5577ZM15.1696 13.9788C15.3474 14.2265 15.2894 14.5675 15.0391 14.7398C15.0354 14.7434 15.0354 14.7434 15.0318 14.7434C13.7296 15.7773 12.6449 17.0516 11.8433 18.4983C11.6837 18.7603 11.3427 18.8465 11.0779 18.6885C10.8131 18.5306 10.726 18.1932 10.8856 17.9311C11.7635 16.3516 12.9569 14.966 14.3934 13.8496C14.6473 13.6701 14.9955 13.7275 15.1805 13.9752" fill="#FFB73B"/>
<path d="M6.54069 26.6606C4.18284 25.3324 2.31471 23.2863 1.22647 20.8237C1.1503 20.5258 0.84559 20.3427 0.544511 20.4145C0.243433 20.4899 0.0584328 20.7914 0.130982 21.0894C0.138237 21.1217 0.149119 21.1504 0.163629 21.1791C1.35706 23.9253 3.43559 26.1976 6.07275 27.6478C6.34118 27.7914 6.6749 27.6945 6.82363 27.4324C6.96873 27.1668 6.87079 26.8365 6.60598 26.6894C6.58422 26.6822 6.56245 26.6714 6.54069 26.6606ZM19.4218 4.72372C19.1388 4.84936 18.8087 4.72731 18.6781 4.4509C17.8112 3.07962 16.5416 2.00269 15.0434 1.36013C14.7532 1.25603 14.6045 0.943718 14.7025 0.656538C14.7968 0.362179 15.1124 0.200641 15.4098 0.290385C15.4243 0.293974 15.4425 0.301154 15.457 0.308333C17.2272 1.05141 18.7144 2.32577 19.7083 3.9591C19.8353 4.2391 19.712 4.56577 19.4326 4.695" fill="black"/>
<path d="M176.892 17.3385L174.026 8.79492H168.767L174.389 22.7231C174.063 23.1539 173.7 23.2975 173.192 23.2975C172.648 23.2975 171.814 23.0103 170.979 22.5436L169.456 26.0257C170.762 26.7795 172.249 27.2462 174.026 27.2462C176.892 27.2462 178.234 25.9539 179.468 22.6513L184.727 8.83082H179.576L176.892 17.3385Z" fill="#FF004D"/>
<path d="M164.522 23.2615C165.937 23.2615 167.134 22.9384 168.005 22.4358V18.5589C167.388 18.8461 166.771 19.0256 166.082 19.0256C165.139 19.0256 164.704 18.5948 164.704 17.6256V12.7794H168.041V8.79482H164.704V5.20508H159.734V8.79482H158.029V12.7794H159.734V18.5589C159.734 21.9692 161.512 23.2615 164.522 23.2615Z" fill="#FF004D"/>
<path d="M147.22 22.9745H152.262V18.5591C152.262 15.2925 153.749 13.8207 156.361 13.8207H156.796V8.57966C154.402 8.47197 153.096 9.72838 152.262 11.6668V8.79505H147.22V22.9745Z" fill="#FF004D"/>
<path d="M143.501 10.3022C142.377 9.18936 140.599 8.5791 138.06 8.5791C135.593 8.5791 133.888 9.00987 132.256 9.69192L133.272 13.174C134.578 12.7073 135.738 12.3842 137.262 12.3842C139.185 12.3842 140.128 13.2099 140.128 14.7176V14.9688C139.293 14.6458 138.024 14.4304 136.682 14.4304C133.308 14.4304 131.059 15.9381 131.059 18.8817V18.9176C131.023 21.7176 133.09 23.2971 135.811 23.2971C137.697 23.2971 139.039 22.5791 140.055 21.5022V22.974H145.025V14.8253C145.025 12.8509 144.589 11.3791 143.501 10.3022ZM140.128 17.8406C140.128 19.2406 139.076 20.174 137.588 20.174C136.573 20.174 135.811 19.5996 135.811 18.6304V18.5945C135.811 17.5176 136.645 16.8355 138.133 16.8355C138.858 16.8355 139.584 16.9791 140.128 17.1945V17.8406Z" fill="#FF004D"/>
<path d="M123.242 8.50781C121.102 8.50781 119.868 9.51294 118.889 10.6976V8.79499H113.847V27.1745H113.883H118.925V21.2514C119.868 22.3283 121.138 23.2976 123.278 23.2976C126.652 23.2976 129.59 20.4976 129.59 15.8668V15.8309C129.59 11.3078 126.652 8.50781 123.242 8.50781ZM124.693 15.9027C124.693 17.8052 123.351 19.1335 121.755 19.1335C120.122 19.1335 118.816 17.8052 118.816 15.9027V15.8668C118.816 13.9642 120.122 12.636 121.755 12.636C123.387 12.636 124.693 13.9642 124.693 15.8668V15.9027Z" fill="#FF004D"/>
<path d="M111.816 16.2255C111.816 12.0614 109.531 8.47168 104.598 8.47168C100.353 8.47168 97.3789 11.7383 97.3789 15.9024V15.9383C97.3789 20.3178 100.571 23.2973 105.069 23.2973C107.899 23.2973 109.894 22.1486 111.272 20.4255L108.479 18.1281C107.463 19.1332 106.52 19.564 105.287 19.564C103.727 19.564 102.602 18.7742 102.203 17.2307H111.78C111.816 16.9076 111.816 16.5127 111.816 16.2255ZM102.131 14.7178C102.385 13.1383 103.292 12.1332 104.634 12.1332C106.012 12.1332 106.955 13.1383 107.137 14.7178H102.131Z" fill="#FF004D"/>
<path d="M90.0158 23.2976C93.4981 23.2976 95.856 21.6822 95.856 18.5591V18.5232C95.856 15.7591 93.6069 14.7899 90.7775 14.0001C89.2903 13.5694 88.456 13.2822 88.456 12.7437V12.7078C88.456 12.277 88.855 11.9899 89.6167 11.9899C90.7413 11.9899 92.3736 12.4924 93.8609 13.3181L95.5658 10.1591C93.9334 9.11807 91.7569 8.50781 89.653 8.50781C86.352 8.50781 83.9216 10.195 83.9216 13.2104V13.2463C83.9216 16.0822 86.1707 17.0155 89.0001 17.7694C90.5236 18.2001 91.3217 18.4155 91.3217 18.9899V19.0258C91.3217 19.5283 90.8864 19.7796 90.0158 19.7796C88.5285 19.7796 86.7511 19.2411 85.1187 18.1642L83.2324 21.1437C85.2275 22.5796 87.6216 23.2976 90.0158 23.2976Z" fill="#FF004D"/>
<path d="M72.4215 23.2975C74.4528 23.2975 75.795 22.1847 76.7019 21V22.9744H81.7077V8.79492H76.7019V16.477C76.7019 18.0206 75.795 18.8462 74.5979 18.8462C73.3646 18.8462 72.5666 18.0206 72.5666 16.477V8.79492H67.5244V18.0565C67.5244 21.2872 69.3744 23.2975 72.4215 23.2975Z" fill="#FF004D"/>
<path d="M57.8032 23.2973C62.4101 23.2973 65.7473 19.923 65.7473 15.8666V15.8307C65.7473 11.8101 62.4463 8.47168 57.8395 8.47168C53.2689 8.47168 49.9316 11.846 49.9316 15.9024V15.9383C49.9316 19.9948 53.2689 23.2973 57.8032 23.2973ZM57.8758 19.0973C56.0983 19.0973 54.8287 17.6255 54.8287 15.9024V15.8666C54.8287 14.1435 55.9895 12.7076 57.8032 12.7076C59.5807 12.7076 60.8865 14.1794 60.8865 15.9383V15.9742C60.8865 17.6614 59.6895 19.0973 57.8758 19.0973Z" fill="#FF004D"/>
<path d="M30.7422 22.9745H35.8932V16.0103H42.4951V22.9745H47.6098V4.63086H42.4589V11.4873H35.8569V4.63086H30.7422V22.9745Z" fill="#FF004D"/>
</svg>
