<svg width="20" height="21" viewBox="0 0 20 21" fill="none" xmlns="http://www.w3.org/2000/svg">
<path fill-rule="evenodd" clip-rule="evenodd" d="M-1.70141e-07 16.5436L0 20.436L3.89236 20.436L3.89236 16.5436L-1.70141e-07 16.5436ZM-5.43596e-07 7.99994L-3.68751e-07 11.9999L4 11.9999L4 7.99994L-5.43596e-07 7.99994ZM16 7.99994L16 11.9999L20 11.9999L20 7.99994L16 7.99994ZM-7.18442e-07 3.99994L-8.93287e-07 -6.10352e-05L4 -6.121e-05L4 3.99994L-7.18442e-07 3.99994ZM8 7.99994L8 3.99994L12 3.99994L12 7.99994L8 7.99994ZM8 11.9999L8 15.9999L12 15.9999L12 11.9999L8 11.9999Z" fill="currentColor"/>
</svg>
