<svg width="80" height="80" viewBox="0 0 80 80" fill="none" xmlns="http://www.w3.org/2000/svg">
<rect width="80" height="80" fill="white"/>
<rect x="4.5" y="14.5" width="71" height="51" rx="7.5" fill="#F0F0F0" stroke="#C8C8C8" stroke-dasharray="4 4"/>
<path d="M51 40L32 29V51L51 40Z" fill="#BEBEBE"/>
<path d="M69 61C69 62.9778 68.4135 64.9112 67.3147 66.5557C66.2159 68.2002 64.6541 69.4819 62.8268 70.2388C60.9996 70.9957 58.9889 71.1937 57.0491 70.8079C55.1093 70.422 53.3275 69.4696 51.9289 68.0711C50.5304 66.6725 49.578 64.8907 49.1921 62.9509C48.8063 61.0111 49.0043 59.0004 49.7612 57.1732C50.5181 55.3459 51.7998 53.7841 53.4443 52.6853C55.0888 51.5865 57.0222 51 59 51V61H69Z" fill="#CEA6FF"/>
<path d="M71 59C71 57.6868 70.7413 56.3864 70.2388 55.1732C69.7362 53.9599 68.9997 52.8575 68.0711 51.9289C67.1425 51.0003 66.0401 50.2638 64.8268 49.7612C63.6136 49.2587 62.3132 49 61 49V59H71Z" fill="#943CFF"/>
</svg>
