<svg width="450" height="450" viewBox="0 0 450 450" fill="none" xmlns="http://www.w3.org/2000/svg">
<path d="M325 255V195H385V255H325Z" fill="url(#paint0_linear_683_8)"/>
<path d="M195 185V125L255 125V185H195Z" fill="url(#paint1_linear_683_8)"/>
<path d="M195 325V265H255V325H195Z" fill="url(#paint2_linear_683_8)"/>
<path d="M65 395L65 335H125L125 395H65Z" fill="url(#paint3_linear_683_8)"/>
<path d="M65 255L65 195H125L125 255H65Z" fill="url(#paint4_linear_683_8)"/>
<path d="M65 115L65 55L125 55L125 115L65 115Z" fill="url(#paint5_linear_683_8)"/>
<defs>
<linearGradient id="paint0_linear_683_8" x1="224.826" y1="394.995" x2="224.827" y2="54.9999" gradientUnits="userSpaceOnUse">
<stop stop-color="#299764"/>
<stop offset="1" stop-color="#00EB88"/>
</linearGradient>
<linearGradient id="paint1_linear_683_8" x1="224.826" y1="394.995" x2="224.827" y2="54.9999" gradientUnits="userSpaceOnUse">
<stop stop-color="#299764"/>
<stop offset="1" stop-color="#00EB88"/>
</linearGradient>
<linearGradient id="paint2_linear_683_8" x1="224.826" y1="394.995" x2="224.827" y2="54.9999" gradientUnits="userSpaceOnUse">
<stop stop-color="#299764"/>
<stop offset="1" stop-color="#00EB88"/>
</linearGradient>
<linearGradient id="paint3_linear_683_8" x1="224.826" y1="394.995" x2="224.827" y2="54.9999" gradientUnits="userSpaceOnUse">
<stop stop-color="#299764"/>
<stop offset="1" stop-color="#00EB88"/>
</linearGradient>
<linearGradient id="paint4_linear_683_8" x1="224.826" y1="394.995" x2="224.827" y2="54.9999" gradientUnits="userSpaceOnUse">
<stop stop-color="#299764"/>
<stop offset="1" stop-color="#00EB88"/>
</linearGradient>
<linearGradient id="paint5_linear_683_8" x1="224.826" y1="394.995" x2="224.827" y2="54.9999" gradientUnits="userSpaceOnUse">
<stop stop-color="#299764"/>
<stop offset="1" stop-color="#00EB88"/>
</linearGradient>
</defs>
</svg>
