<svg width="196" height="37" viewBox="0 0 196 37" fill="none" xmlns="http://www.w3.org/2000/svg">
<g clip-path="url(#clip0)">
<path d="M37.2761 18.4632C37.2761 28.6879 29.1093 37 18.6631 37C8.26689 37 0 28.6879 0 18.4632C0 8.33665 8.26689 0 18.6631 0C29.1093 0 37.2761 8.33665 37.2761 18.4632ZM1.30242 18.4632C3.93274 23.8821 10.1205 29.1783 18.6629 29.1783C27.1552 29.1783 33.3929 23.8821 36.0232 18.4632C33.3929 13.1179 27.1801 7.8463 18.6629 7.8463C10.1205 7.84611 3.93293 13.1179 1.30242 18.4632ZM18.6629 8.67985C13.1265 8.67985 8.61753 13.0933 8.61753 18.4632C8.61753 23.9308 13.1016 28.2956 18.6629 28.2956C24.1991 28.2956 28.6583 23.9308 28.6583 18.4632C28.6832 13.0933 24.1991 8.67985 18.6629 8.67985Z" fill="#EE2824"/>
<path d="M46.6699 18.6832C46.6699 13.9754 50.3526 10.8125 55.2124 10.8125C59.2957 10.8125 61.3499 13.142 62.2768 15.226L58.2184 17.065C57.8176 15.888 56.6152 14.8582 55.2124 14.8582C52.9578 14.8582 51.4296 16.5501 51.4296 18.6588C51.4296 20.7675 52.9327 22.4594 55.2124 22.4594C56.6152 22.4594 57.8176 21.4294 58.2184 20.2528L62.2768 22.067C61.3748 24.1019 59.2957 26.5053 55.2124 26.5053C50.3526 26.5542 46.6699 23.3664 46.6699 18.6832Z" fill="black"/>
<path d="M63.4043 26.2843V11.082H72.8486C76.0551 11.082 77.4581 13.1907 77.4581 14.9561C77.4581 16.8442 76.3058 18.1191 74.8027 18.438C76.481 18.683 77.7587 20.2035 77.7587 22.1649C77.7587 24.2736 76.2805 26.2843 73.1743 26.2843H63.4043ZM72.6982 15.7654C72.6982 15.2504 72.2472 14.9071 71.7713 14.9071H68.1389V16.6972H71.7713C72.2723 16.6727 72.6982 16.3293 72.6982 15.7654ZM73.024 21.5028C73.024 20.9636 72.5981 20.522 71.9217 20.522H68.1389V22.4592H71.9217C72.573 22.4592 73.024 22.0669 73.024 21.5028Z" fill="black"/>
<path d="M78.2598 24.1507L80.7147 20.7425C81.8671 21.846 83.6208 22.7041 85.725 22.7041C86.6017 22.7041 87.4535 22.4838 87.4535 21.8951C87.4535 20.424 78.7858 21.9194 78.7858 15.9123C78.7858 13.3378 80.9652 10.8613 85.2489 10.8613C87.7791 10.8613 90.0839 11.5723 91.8375 12.97L89.3322 16.2312C87.9794 15.2257 86.2258 14.7356 84.7729 14.7356C83.846 14.7356 83.5955 15.0298 83.5955 15.4222C83.5955 16.8688 92.2381 15.6182 92.2381 21.2823C92.2381 24.6415 89.7079 26.5785 85.5245 26.5785C82.1427 26.5539 79.8881 25.5978 78.2598 24.1507Z" fill="black"/>
<path d="M100.305 26.2853V10.8379H101.657V26.2853H100.305Z" fill="black"/>
<path d="M112.58 26.2858V18.7092C112.58 16.5514 111.478 15.9139 109.825 15.9139C108.347 15.9139 106.844 16.8211 106.117 17.8263V26.2858H104.89V15.1047H106.117V16.7965C106.944 15.8157 108.572 14.835 110.226 14.835C112.555 14.835 113.808 15.9382 113.808 18.4638V26.2856C113.783 26.2858 112.58 26.2858 112.58 26.2858Z" fill="black"/>
<path d="M117.115 24.1281V16.1592H115.211V15.1049H117.115V12.04H118.368V15.1049H120.672V16.1592H118.368V23.9317C118.368 24.8391 118.743 25.4518 119.545 25.4518C120.096 25.4518 120.572 25.2069 120.823 24.9126L121.299 25.8443C120.848 26.2614 120.297 26.5307 119.369 26.5307C117.866 26.5557 117.115 25.6487 117.115 24.1281Z" fill="black"/>
<path d="M121.624 20.6707C121.624 17.4342 123.954 14.8105 127.135 14.8105C130.617 14.8105 132.521 17.5076 132.521 20.7442V21.063H122.977C123.102 23.4906 124.755 25.5013 127.436 25.5013C128.889 25.5013 130.191 24.9616 131.168 23.9564L131.795 24.741C130.667 25.8936 129.214 26.5556 127.335 26.5556C123.979 26.5554 121.624 24.1279 121.624 20.6707ZM127.11 15.8647C124.405 15.8647 123.077 18.1697 122.977 20.1311H131.269C131.243 18.2186 129.941 15.8647 127.11 15.8647Z" fill="black"/>
<path d="M134.876 26.2856V15.1045H136.104V17.0172C137.08 15.7666 138.383 14.8594 139.962 14.8594V16.1835C139.761 16.1345 139.586 16.1345 139.335 16.1345C138.183 16.1345 136.605 17.1643 136.104 18.1207V26.2614H134.876V26.2856H134.876Z" fill="black"/>
<path d="M148.979 26.2856V24.9615C147.952 26.0402 146.674 26.5555 145.096 26.5555C143.142 26.5555 141.088 25.2314 141.088 22.8284C141.088 20.4008 143.092 19.1257 145.096 19.1257C146.674 19.1257 147.977 19.641 148.979 20.7197V18.4638C148.979 16.7965 147.601 15.8893 145.898 15.8893C144.47 15.8893 143.368 16.3799 142.315 17.5321L141.639 16.6985C142.817 15.4479 144.144 14.835 146.048 14.835C148.353 14.835 150.207 15.9139 150.207 18.4149V26.2858H148.979V26.2856ZM148.979 24.0786V21.6267C148.178 20.5971 146.9 20.0818 145.522 20.0818C143.618 20.0818 142.391 21.2591 142.391 22.853C142.391 24.4218 143.618 25.599 145.522 25.599C146.9 25.6235 148.153 25.1086 148.979 24.0786Z" fill="black"/>
<path d="M152.536 20.6707C152.536 17.4096 154.741 14.8105 158.097 14.8105C160.077 14.8105 161.229 15.5706 162.131 16.6986L161.279 17.4342C160.452 16.3309 159.4 15.8893 158.147 15.8893C155.467 15.8893 153.839 17.9734 153.839 20.6458C153.839 23.3185 155.467 25.4272 158.147 25.4272C159.4 25.4272 160.452 24.9614 161.279 23.858L162.131 24.5935C161.204 25.7461 160.077 26.5063 158.097 26.5063C154.741 26.5554 152.536 23.9564 152.536 20.6707Z" fill="black"/>
<path d="M165.062 24.1281V16.1592H163.158V15.1049H165.062V12.04H166.314V15.1049H168.644V16.1592H166.314V23.9317C166.314 24.8391 166.69 25.4518 167.492 25.4518C168.043 25.4518 168.519 25.2069 168.77 24.9126L169.246 25.8443C168.795 26.2614 168.244 26.5307 167.317 26.5307C165.763 26.5557 165.062 25.6487 165.062 24.1281Z" fill="black"/>
<path d="M170.498 12.4316C170.498 11.9165 170.949 11.5244 171.45 11.5244C171.976 11.5244 172.402 11.9167 172.402 12.4316C172.402 12.9465 171.976 13.3634 171.45 13.3634C170.949 13.3388 170.498 12.922 170.498 12.4316ZM170.824 26.2852V15.1042H172.052V26.2852H170.824Z" fill="black"/>
<path d="M178.465 26.2856L173.63 15.1045H175.008L179.166 24.8636L183.275 15.1045H184.677L179.842 26.2856H178.465Z" fill="black"/>
<path d="M185.104 20.6707C185.104 17.4342 187.433 14.8105 190.615 14.8105C194.097 14.8105 196.001 17.5076 196.001 20.7442V21.063H186.431C186.556 23.4906 188.21 25.5013 190.89 25.5013C192.343 25.5013 193.646 24.9616 194.623 23.9564L195.249 24.741C194.122 25.8936 192.669 26.5556 190.79 26.5556C187.483 26.5554 185.104 24.1279 185.104 20.6707ZM190.565 15.8647C187.859 15.8647 186.531 18.1697 186.431 20.1311H194.723C194.698 18.2186 193.445 15.8647 190.565 15.8647Z" fill="black"/>
</g>
<defs>
<clipPath id="clip0">
<rect width="196" height="37" fill="white"/>
</clipPath>
</defs>
</svg>
