<svg width="20" height="16" viewBox="0 0 20 16" fill="none" xmlns="http://www.w3.org/2000/svg">
  <path opacity="0.7" d="M12.25 16V14.5H15.25C15.6 14.5 15.8958 14.3792 16.1375 14.1375C16.3792 13.8958 16.5 13.6 16.5 13.25V10.75C16.5 10.1333 16.6875 9.58334 17.0625 9.1C17.4375 8.61667 17.9167 8.28334 18.5 8.1V7.9C17.9167 7.73333 17.4375 7.40417 17.0625 6.9125C16.6875 6.42084 16.5 5.86667 16.5 5.25V2.75C16.5 2.4 16.3792 2.10417 16.1375 1.8625C15.8958 1.62083 15.6 1.5 15.25 1.5H12.25V0H15.25C16.0167 0 16.6667 0.266667 17.2 0.8C17.7333 1.33333 18 1.98333 18 2.75V5.25C18 5.6 18.1208 5.89583 18.3625 6.1375C18.6042 6.37917 18.9 6.5 19.25 6.5H20V9.5H19.25C18.9 9.5 18.6042 9.62084 18.3625 9.8625C18.1208 10.1042 18 10.4 18 10.75V13.25C18 14.0167 17.7333 14.6667 17.2 15.2C16.6667 15.7333 16.0167 16 15.25 16H12.25ZM4.75 16C3.98333 16 3.33333 15.7333 2.8 15.2C2.26667 14.6667 2 14.0167 2 13.25V10.75C2 10.4 1.87917 10.1042 1.6375 9.8625C1.39583 9.62084 1.1 9.5 0.75 9.5H0V6.5H0.75C1.1 6.5 1.39583 6.37917 1.6375 6.1375C1.87917 5.89583 2 5.6 2 5.25V2.75C2 1.98333 2.26667 1.33333 2.8 0.8C3.33333 0.266667 3.98333 0 4.75 0H7.75V1.5H4.75C4.4 1.5 4.10417 1.62083 3.8625 1.8625C3.62083 2.10417 3.5 2.4 3.5 2.75V5.25C3.5 5.86667 3.3125 6.42084 2.9375 6.9125C2.5625 7.40417 2.08333 7.73333 1.5 7.9V8.1C2.08333 8.28334 2.5625 8.61667 2.9375 9.1C3.3125 9.58334 3.5 10.1333 3.5 10.75V13.25C3.5 13.6 3.62083 13.8958 3.8625 14.1375C4.10417 14.3792 4.4 14.5 4.75 14.5H7.75V16H4.75Z" fill="currentColor" />
</svg>
  