<svg width="18" height="18" viewBox="0 0 18 18" fill="none" xmlns="http://www.w3.org/2000/svg">
  <path opacity="0.7" d="M9 8C6.31667 8 4.14583 7.59167 2.4875 6.775C0.829167 5.95833 0 5.03333 0 4C0 2.95 0.829167 2.02083 2.4875 1.2125C4.14583 0.404167 6.31667 0 9 0C11.6833 0 13.8542 0.404167 15.5125 1.2125C17.1708 2.02083 18 2.95 18 4C18 5.03333 17.1708 5.95833 15.5125 6.775C13.8542 7.59167 11.6833 8 9 8ZM9 13C6.56667 13 4.45833 12.6333 2.675 11.9C0.891667 11.1667 0 10.2833 0 9.25V6.75C0 7.4 0.3125 7.9625 0.9375 8.4375C1.5625 8.9125 2.3375 9.30417 3.2625 9.6125C4.1875 9.92083 5.17083 10.1458 6.2125 10.2875C7.25417 10.4292 8.18333 10.5 9 10.5C9.83333 10.5 10.7667 10.4292 11.8 10.2875C12.8333 10.1458 13.8125 9.925 14.7375 9.625C15.6625 9.325 16.4375 8.9375 17.0625 8.4625C17.6875 7.9875 18 7.41667 18 6.75V9.25C18 10.2833 17.1083 11.1667 15.325 11.9C13.5417 12.6333 11.4333 13 9 13ZM9 18C6.56667 18 4.45833 17.6333 2.675 16.9C0.891667 16.1667 0 15.2833 0 14.25V11.75C0 12.4 0.3125 12.9625 0.9375 13.4375C1.5625 13.9125 2.3375 14.3042 3.2625 14.6125C4.1875 14.9208 5.17083 15.1458 6.2125 15.2875C7.25417 15.4292 8.18333 15.5 9 15.5C9.83333 15.5 10.7667 15.4292 11.8 15.2875C12.8333 15.1458 13.8125 14.925 14.7375 14.625C15.6625 14.325 16.4375 13.9375 17.0625 13.4625C17.6875 12.9875 18 12.4167 18 11.75V14.25C18 15.2833 17.1083 16.1667 15.325 16.9C13.5417 17.6333 11.4333 18 9 18Z" fill="currentColor" />
</svg>