<svg width="12" height="12" viewBox="0 0 12 12" fill="none" xmlns="http://www.w3.org/2000/svg">
<path fill-rule="evenodd" clip-rule="evenodd" d="M8.57175 0H11.1427C11.5725 0 12 0.375 12 0.75V10.5C12 10.875 11.5718 11.25 11.1427 11.25H7.299C7.16734 11.478 6.97799 11.6674 6.74997 11.799C6.52195 11.9306 6.26329 11.9999 6 11.9999C5.73671 11.9999 5.47805 11.9306 5.25003 11.799C5.02201 11.6674 4.83266 11.478 4.701 11.25H0.85725C0.4275 11.25 0 10.875 0 10.5V0.75C0 0.375 0.42825 0 0.85725 0H3.4275C4.09575 0 4.7625 0.303 5.25 0.7515V9.75C5.25 9.94891 5.32902 10.1397 5.46967 10.2803C5.61032 10.421 5.80109 10.5 6 10.5C6.19891 10.5 6.38968 10.421 6.53033 10.2803C6.67098 10.1397 6.75 9.94891 6.75 9.75V0.7515C7.2375 0.303 7.905 0 8.57175 0Z" fill="black" fill-opacity="0.6"/>
</svg>
