<svg width="16" height="16" viewBox="0 0 16 16" fill="currentColor"
    xmlns="http://www.w3.org/2000/svg">
    <g>
        <path d="M2.2455 10.101C1.72801 9.8849 1.21124 9.66708 0.695181 9.44756C0.695181 9.44756 0.349918 9.32966 0.225286 8.91029C0.100655 8.49092 0.0678125 8.01935 0.225286 7.54019C0.38276 7.06019 0.695181 6.92124 0.695181 6.92124C0.695181 6.92124 8.80129 3.49387 12.1815 2.34861C12.6278 2.19787 13.1752 2.21724 13.1752 2.21724C14.8274 2.27535 16.0004 5.08124 16.0004 8.33682C16.0004 11.5924 14.6362 14.0699 13.176 14.0968C13.176 14.0968 12.7684 14.181 12.1823 13.9831C10.339 13.3659 7.7335 12.3444 5.46992 11.4273C5.37392 11.3895 5.20887 11.3179 5.18529 11.5764V12.0724C5.18529 12.544 4.8375 12.7739 4.40802 12.6004L3.22487 12.1238C2.79539 11.9503 2.4476 11.4316 2.4476 10.9633V10.4328C2.46276 10.1886 2.31118 10.128 2.2455 10.101ZM12.8425 12.7579C13.9937 12.7579 14.9268 10.6846 14.9268 8.12629C14.9268 5.56798 13.9937 3.49471 12.8425 3.49471C11.6914 3.49471 10.7583 5.56798 10.7583 8.12629C10.7583 10.6846 11.6914 12.7579 12.8425 12.7579Z" fill="currentColor"/>
    </g>
</svg>
