<svg width="12" height="12" viewBox="0 0 12 12" fill="none" xmlns="http://www.w3.org/2000/svg">
<path fill-rule="evenodd" clip-rule="evenodd" d="M1.5 2.99989V10.4999H9V8.24989C9 8.05097 9.07902 7.86021 9.21967 7.71956C9.36032 7.5789 9.55109 7.49989 9.75 7.49989C9.94891 7.49989 10.1397 7.5789 10.2803 7.71956C10.421 7.86021 10.5 8.05097 10.5 8.24989V11.2499C10.5 11.4488 10.421 11.6396 10.2803 11.7802C10.1397 11.9209 9.94891 11.9999 9.75 11.9999H0.75C0.551088 11.9999 0.360322 11.9209 0.21967 11.7802C0.0790176 11.6396 0 11.4488 0 11.2499V2.24989C0 2.05097 0.0790176 1.86021 0.21967 1.71956C0.360322 1.5789 0.551088 1.49989 0.75 1.49989H3.75C3.94891 1.49989 4.13968 1.5789 4.28033 1.71956C4.42098 1.86021 4.5 2.05097 4.5 2.24989C4.5 2.4488 4.42098 2.63956 4.28033 2.78022C4.13968 2.92087 3.94891 2.99989 3.75 2.99989H1.5ZM5.78025 7.28014C5.71106 7.35177 5.62831 7.40891 5.5368 7.44821C5.4453 7.48752 5.34689 7.50821 5.2473 7.50907C5.14772 7.50994 5.04896 7.49096 4.95678 7.45325C4.86461 7.41554 4.78087 7.35985 4.71045 7.28943C4.64003 7.21901 4.58434 7.13527 4.54663 7.0431C4.50892 6.95093 4.48995 6.85217 4.49081 6.75259C4.49168 6.653 4.51237 6.55459 4.55167 6.46308C4.59098 6.37158 4.64812 6.28882 4.71975 6.21964L9.44475 1.49614H6.76275C6.66251 1.49931 6.56266 1.48231 6.46912 1.44614C6.37558 1.40997 6.29026 1.35538 6.21823 1.28559C6.1462 1.21581 6.08893 1.13226 6.04982 1.03991C6.01071 0.947566 5.99056 0.8483 5.99056 0.748012C5.99056 0.647723 6.01071 0.548457 6.04982 0.45611C6.08893 0.363762 6.1462 0.280215 6.21823 0.210432C6.29026 0.140648 6.37558 0.0860512 6.46912 0.0498829C6.56266 0.0137145 6.66251 -0.00328744 6.76275 -0.000113259H11.2523C11.3506 -0.000311324 11.4479 0.0189195 11.5388 0.0564742C11.6297 0.094029 11.7122 0.149167 11.7817 0.218721C11.8512 0.288275 11.9062 0.370874 11.9437 0.461771C11.9812 0.552668 12.0003 0.650072 12 0.748387V5.23789C12.0032 5.33813 11.9862 5.43798 11.95 5.53152C11.9138 5.62506 11.8592 5.71038 11.7895 5.7824C11.7197 5.85443 11.6361 5.9117 11.5438 5.95081C11.4514 5.98992 11.3522 6.01008 11.2519 6.01008C11.1516 6.01008 11.0523 5.98992 10.96 5.95081C10.8676 5.9117 10.7841 5.85443 10.7143 5.7824C10.6445 5.71038 10.5899 5.62506 10.5537 5.53152C10.5176 5.43798 10.5006 5.33813 10.5037 5.23789V2.55439L5.78025 7.28014Z" fill="black" fill-opacity="0.6"/>
</svg>
