<svg width="12" height="12" viewBox="0 0 12 12" fill="none"
    xmlns="http://www.w3.org/2000/svg">
    <path fill-rule="evenodd" clip-rule="evenodd" d="M6.75 6C6.75 5.80109 6.67098 5.61032 6.53033 5.46967C6.38968 5.32902 6.19891 5.25 6 5.25H4.125C3.92609 5.25 3.73532 5.32902 3.59467 5.46967C3.45402 5.61032 3.375 5.80109 3.375 6C3.375 6.19891 3.45402 6.38968 3.59467 6.53033C3.73532 6.67098 3.92609 6.75 4.125 6.75H5.25V9.75C5.25 9.94891 5.32902 10.1397 5.46967 10.2803C5.61032 10.421 5.80109 10.5 6 10.5C6.19891 10.5 6.38968 10.421 6.53033 10.2803C6.67098 10.1397 6.75 9.94891 6.75 9.75V6ZM3 0H9C9.79565 0 10.5587 0.316071 11.1213 0.87868C11.6839 1.44129 12 2.20435 12 3V9C12 9.79565 11.6839 10.5587 11.1213 11.1213C10.5587 11.6839 9.79565 12 9 12H3C2.20435 12 1.44129 11.6839 0.87868 11.1213C0.316071 10.5587 0 9.79565 0 9V3C0 2.20435 0.316071 1.44129 0.87868 0.87868C1.44129 0.316071 2.20435 0 3 0V0ZM6 4.125C6.29837 4.125 6.58452 4.00647 6.7955 3.7955C7.00647 3.58452 7.125 3.29837 7.125 3C7.125 2.70163 7.00647 2.41548 6.7955 2.2045C6.58452 1.99353 6.29837 1.875 6 1.875C5.70163 1.875 5.41548 1.99353 5.2045 2.2045C4.99353 2.41548 4.875 2.70163 4.875 3C4.875 3.29837 4.99353 3.58452 5.2045 3.7955C5.41548 4.00647 5.70163 4.125 6 4.125Z" fill="currentColor"/>
</svg>
