<svg xmlns="http://www.w3.org/2000/svg" fill="none" width="19" height="22" viewBox="0 0 19 22">
  <path fill="currentColor" d="M9.50023 0.5L0.407227 5.75V16.25L9.50023 21.5L18.5932 16.25V5.75L9.50023 0.5ZM8.56135 1.76438H8.56223C8.8331 1.96433 9.16092 2.07221 9.4976 2.07221C9.83428 2.07221 10.1621 1.96433 10.433 1.76438L17.0252 5.57063C17.012 5.68779 17.012 5.80608 17.0252 5.92325L10.4321 9.7295C10.1613 9.52975 9.83366 9.42198 9.49717 9.42198C9.16067 9.42198 8.83302 9.52975 8.56223 9.7295L1.96823 5.92325C1.9814 5.80637 1.9814 5.68838 1.96823 5.5715L8.56135 1.76438ZM17.6587 6.975C17.7541 7.045 17.8565 7.10362 17.9641 7.15088V14.7634C17.6554 14.898 17.398 15.128 17.2297 15.4197C17.0614 15.7113 16.9909 16.0493 17.0287 16.3839L10.4356 20.1901C10.3407 20.1206 10.2382 20.0619 10.1302 20.0151L10.1224 12.4437C10.431 12.3093 10.6885 12.0795 10.857 11.788C11.0255 11.4965 11.0962 11.1587 11.0586 10.8241L17.6587 6.975ZM1.34173 7.017L7.93485 10.8232C7.89704 11.1579 7.96748 11.4958 8.13582 11.7875C8.30417 12.0791 8.56156 12.3091 8.87023 12.4437V20.0562C8.76173 20.1035 8.66023 20.163 8.56485 20.233L1.97173 16.4268C2.00954 16.0921 1.9391 15.7542 1.77076 15.4625C1.60241 15.1709 1.34502 14.9409 1.03635 14.8063V7.19375C1.14485 7.1465 1.24635 7.087 1.3426 7.017H1.34173Z" />
</svg>