<svg width="16" height="13" viewBox="0 0 16 13" fill="none" xmlns="http://www.w3.org/2000/svg">
<g clip-path="url(#clip0)">
<path d="M12.928 0.407999C9.65445 -0.135979 6.31356 -0.135979 3.04 0.407999C1.168 0.799999 0 2.008 0 3.584V9.184C0 10.784 1.168 11.976 3.072 12.384C4.7004 12.6582 6.34868 12.7973 8 12.8C9.65639 12.7996 11.31 12.6632 12.944 12.392C14.8 12.04 16 10.792 16 9.192V3.592C16 2 14.8 0.751999 12.928 0.407999ZM10.608 6.76L6.608 9.16C6.54543 9.19813 6.47326 9.21756 6.4 9.216C6.33055 9.21544 6.26214 9.19902 6.2 9.168C6.1371 9.12983 6.08544 9.07565 6.05031 9.011C6.01517 8.94636 5.99781 8.87355 6 8.8V4C6.0006 3.92915 6.01929 3.85963 6.05429 3.79803C6.08929 3.73643 6.13945 3.68478 6.2 3.648C6.26274 3.61439 6.33282 3.5968 6.404 3.5968C6.47518 3.5968 6.54526 3.61439 6.608 3.648L10.608 6.048C10.6658 6.08487 10.7134 6.13571 10.7464 6.19584C10.7793 6.25596 10.7966 6.32343 10.7966 6.392C10.7966 6.46057 10.7793 6.52803 10.7464 6.58816C10.7134 6.64828 10.6658 6.69913 10.608 6.736V6.76Z" fill="#4F566B"/>
</g>
<defs>
<clipPath id="clip0">
<rect width="16" height="12.8" fill="white"/>
</clipPath>
</defs>
</svg>
