<svg width="12" height="12" viewBox="0 0 12 12" fill="currentColor"
    xmlns="http://www.w3.org/2000/svg">
    <path fillrule="evenodd" clipRule="evenodd" d="M2.871 3.93225L1.75725 2.81775C1.62063 2.6763 1.54504 2.48685 1.54674 2.2902C1.54845 2.09355 1.62733 1.90544 1.76639 1.76639C1.90544 1.62733 2.09355 1.54845 2.2902 1.54674C2.48685 1.54504 2.6763 1.62063 2.81775 1.75725L3.93225 2.871C3.51095 3.15005 3.15005 3.51095 2.871 3.93225ZM5.25 2.325V0.75C5.25 0.551088 5.32902 0.360322 5.46967 0.21967C5.61032 0.0790176 5.80109 0 6 0C6.19891 0 6.38968 0.0790176 6.53033 0.21967C6.67098 0.360322 6.75 0.551088 6.75 0.75V2.325C6.25505 2.22445 5.74495 2.22445 5.25 2.325ZM8.06775 2.871L9.18225 1.75725C9.25144 1.68562 9.33419 1.62848 9.4257 1.58917C9.5172 1.54987 9.61561 1.52918 9.7152 1.52831C9.81478 1.52745 9.91354 1.54642 10.0057 1.58413C10.0979 1.62184 10.1816 1.67753 10.252 1.74795C10.3225 1.81837 10.3782 1.90211 10.4159 1.99428C10.4536 2.08646 10.4726 2.18522 10.4717 2.2848C10.4708 2.38439 10.4501 2.4828 10.4108 2.5743C10.3715 2.66581 10.3144 2.74856 10.2428 2.81775L9.129 3.93225C8.84995 3.51095 8.48905 3.15005 8.06775 2.871ZM9.675 5.25H11.25C11.4489 5.25 11.6397 5.32902 11.7803 5.46967C11.921 5.61032 12 5.80109 12 6C12 6.19891 11.921 6.38968 11.7803 6.53033C11.6397 6.67098 11.4489 6.75 11.25 6.75H9.675C9.77555 6.25505 9.77555 5.74495 9.675 5.25ZM9.129 8.06775L10.2428 9.18225C10.3144 9.25144 10.3715 9.33419 10.4108 9.4257C10.4501 9.5172 10.4708 9.61561 10.4717 9.7152C10.4726 9.81478 10.4536 9.91354 10.4159 10.0057C10.3782 10.0979 10.3225 10.1816 10.252 10.252C10.1816 10.3225 10.0979 10.3782 10.0057 10.4159C9.91354 10.4536 9.81478 10.4726 9.7152 10.4717C9.61561 10.4708 9.5172 10.4501 9.4257 10.4108C9.33419 10.3715 9.25144 10.3144 9.18225 10.2428L8.06775 9.129C8.48905 8.84995 8.84995 8.48905 9.129 8.06775ZM6.75 9.675V11.25C6.75 11.4489 6.67098 11.6397 6.53033 11.7803C6.38968 11.921 6.19891 12 6 12C5.80109 12 5.61032 11.921 5.46967 11.7803C5.32902 11.6397 5.25 11.4489 5.25 11.25V9.675C5.74495 9.77555 6.25505 9.77555 6.75 9.675ZM3.93225 9.129L2.81775 10.2428C2.6763 10.3794 2.48685 10.455 2.2902 10.4533C2.09355 10.4515 1.90544 10.3727 1.76639 10.2336C1.62733 10.0946 1.54845 9.90645 1.54674 9.7098C1.54504 9.51315 1.62063 9.3237 1.75725 9.18225L2.871 8.06775C3.15005 8.48905 3.51095 8.84995 3.93225 9.129ZM2.325 6.75H0.75C0.551088 6.75 0.360322 6.67098 0.21967 6.53033C0.0790176 6.38968 0 6.19891 0 6C0 5.80109 0.0790176 5.61032 0.21967 5.46967C0.360322 5.32902 0.551088 5.25 0.75 5.25H2.325C2.22445 5.74495 2.22445 6.25505 2.325 6.75ZM6 8.25C5.40326 8.25 4.83097 8.01295 4.40901 7.59099C3.98705 7.16903 3.75 6.59674 3.75 6C3.75 5.40326 3.98705 4.83097 4.40901 4.40901C4.83097 3.98705 5.40326 3.75 6 3.75C6.59674 3.75 7.16903 3.98705 7.59099 4.40901C8.01295 4.83097 8.25 5.40326 8.25 6C8.25 6.59674 8.01295 7.16903 7.59099 7.59099C7.16903 8.01295 6.59674 8.25 6 8.25Z" fill="#FBBA13" />
</svg>
