<svg width="12" height="12" viewBox="0 0 12 12" fill="none" xmlns="http://www.w3.org/2000/svg">
<path fill-rule="evenodd" clip-rule="evenodd" d="M9.23625 8.9805L8.694 11.841C8.68686 11.879 8.66889 11.9142 8.64225 11.9423C8.62533 11.9604 8.60485 11.975 8.58207 11.9849C8.5593 11.9948 8.53472 11.9999 8.50988 11.9999C8.48503 11.9999 8.46045 11.9948 8.43768 11.9849C8.4149 11.975 8.39442 11.9604 8.3775 11.9423L6.2925 9.74475C6.195 9.74775 6.0975 9.75 6 9.75C2.6865 9.75 0 7.5675 0 4.875C0 2.1825 2.6865 0 6 0C9.3135 0 12 2.1825 12 4.875C12 6.59925 10.8982 8.11425 9.23625 8.9805Z" fill="black" fill-opacity="0.6"/>
</svg>
