<svg height="16" viewBox="0 0 16 16" width="16"
    xmlns="http://www.w3.org/2000/svg">
    <path d="M0 11.173V3.307A1.31 1.31 0 0 1 1.31 2h13.38c.724 0 1.31.579 1.31 1.307v9.386A1.31 1.31 0 0 1 14.69 14H1.31C.585 14 0 13.421 0 12.693zm2.348-4.006a.594.594 0 0 0-.295.788c.13.294.486.44.783.308l2.576-1.147c.3-.133.83-.53.957-1.06-.127-.53-.657-.927-.957-1.06L2.836 3.849a.601.601 0 0 0-.488 1.096L5.19 6.056l-2.84 1.11z" fill="#4F566B" class="db-SideNav-iconFill--primary" fill-rule="evenodd"></path>
</svg>
