<svg width="16" height="16" viewBox="0 0 16 16" fill="none"
    xmlns="http://www.w3.org/2000/svg">
    <path d="M12.6668 2V0.666667C12.6668 0.489856 12.5966 0.320286 12.4716 0.195262C12.3465 0.0702379 12.177 0 12.0002 0C11.8234 0 11.6538 0.0702379 11.5288 0.195262C11.4037 0.320286 11.3335 0.489856 11.3335 0.666667V2H12.6668Z" fill="currentColor"/>
    <path d="M4.66683 2V0.666667C4.66683 0.489856 4.59659 0.320286 4.47157 0.195262C4.34654 0.0702379 4.17697 0 4.00016 0C3.82335 0 3.65378 0.0702379 3.52876 0.195262C3.40373 0.320286 3.3335 0.489856 3.3335 0.666667V2H4.66683Z" fill="currentColor"/>
    <path d="M14 15.3334H2C1.46957 15.3334 0.960859 15.1227 0.585786 14.7476C0.210714 14.3726 0 13.8638 0 13.3334L0 4.66675C0 4.13631 0.210714 3.62761 0.585786 3.25253C0.960859 2.87746 1.46957 2.66675 2 2.66675H14C14.5304 2.66675 15.0391 2.87746 15.4142 3.25253C15.7893 3.62761 16 4.13631 16 4.66675V13.3334C16 13.8638 15.7893 14.3726 15.4142 14.7476C15.0391 15.1227 14.5304 15.3334 14 15.3334ZM14.6667 6.00008H1.33333V13.3334C1.33333 13.5102 1.40357 13.6798 1.5286 13.8048C1.65362 13.9298 1.82319 14.0001 2 14.0001H14C14.1768 14.0001 14.3464 13.9298 14.4714 13.8048C14.5964 13.6798 14.6667 13.5102 14.6667 13.3334V6.00008Z" fill="currentColor"/>
    <ellipse cx="10.9998" cy="10.3333" rx="1.33333" ry="1.33333" fill="currentColor"/>
</svg>
