<svg width="157" height="21" viewBox="0 0 157 21" fill="none" xmlns="http://www.w3.org/2000/svg">
<path d="M5.85274 20.6596C7.71792 20.6596 8.84684 19.4308 8.84684 17.3557V13.3145H7.03075V17.1372C7.03075 18.3933 6.51537 18.994 5.38644 18.994H4.74836C3.64397 18.994 3.1286 18.3933 3.1286 17.1372V4.52234C3.1286 3.26631 3.64397 2.6656 4.74836 2.6656H5.38644C6.51537 2.6656 7.03075 3.26631 7.03075 4.52234V7.79893H8.84684V4.3039C8.84684 2.22872 7.71792 1 5.85274 1H4.28206C2.41688 1 1.3125 2.22872 1.3125 4.3039V17.3557C1.3125 19.4308 2.41688 20.6596 4.28206 20.6596H5.85274ZM15.4241 20.6596C17.2892 20.6596 18.4182 19.4308 18.4182 17.3557V4.3039C18.4182 2.22872 17.2892 1 15.4241 1H13.8534C11.9882 1 10.8838 2.22872 10.8838 4.3039V17.3557C10.8838 19.4308 11.9882 20.6596 13.8534 20.6596H15.4241ZM14.9578 18.994H14.3197C13.2153 18.994 12.6999 18.3933 12.6999 17.1372V4.52234C12.6999 3.26631 13.2153 2.6656 14.3197 2.6656H14.9578C16.0867 2.6656 16.6021 3.26631 16.6021 4.52234V17.1372C16.6021 18.3933 16.0867 18.994 14.9578 18.994ZM26.6151 20.523V18.8574H22.5166V1.13652H20.7005V20.523H26.6151ZM34.3458 20.523V18.8574H30.2473V1.13652H28.4312V20.523H34.3458ZM37.3645 20.523L37.9535 16.2362H41.8311L42.4201 20.523H44.2116L41.3402 1.13652H38.4443L35.5484 20.523H37.3645ZM41.5856 14.5706H38.1743L39.3033 6.46099L39.8432 2.93865H39.9413L40.4567 6.46099L41.5856 14.5706ZM50.5925 20.523C52.4577 20.523 53.5866 19.2943 53.5866 17.2191V13.4511C53.5866 11.922 52.9731 10.8844 51.8932 10.4475C52.924 10.0106 53.4884 9.00035 53.4884 7.49858V4.44042C53.4884 2.36525 52.3841 1.13652 50.4943 1.13652H46.0523V20.523H50.5925ZM50.0771 9.68297H47.8684V2.80213H50.0771C51.1815 2.80213 51.6969 3.40284 51.6969 4.63156V7.85354C51.6969 9.08226 51.1815 9.68297 50.0771 9.68297ZM50.1262 18.8574H47.8684V11.2667H50.1262C51.2551 11.2667 51.7705 11.8674 51.7705 13.0961V17.028C51.7705 18.2567 51.2551 18.8574 50.1262 18.8574ZM60.1638 20.6596C62.029 20.6596 63.1579 19.4308 63.1579 17.3557V4.3039C63.1579 2.22872 62.029 1 60.1638 1H58.5931C56.728 1 55.6236 2.22872 55.6236 4.3039V17.3557C55.6236 19.4308 56.728 20.6596 58.5931 20.6596H60.1638ZM59.6975 18.994H59.0594C57.9551 18.994 57.4397 18.3933 57.4397 17.1372V4.52234C57.4397 3.26631 57.9551 2.6656 59.0594 2.6656H59.6975C60.8264 2.6656 61.3418 3.26631 61.3418 4.52234V17.1372C61.3418 18.3933 60.8264 18.994 59.6975 18.994ZM67.2564 20.523V11.8947H69.5143C70.6432 11.8947 71.1586 12.4954 71.1586 13.7241V20.523H72.9747V14.0245C72.9747 12.4135 72.3611 11.4578 71.1831 11.1028C72.312 10.6933 72.9747 9.65567 72.9747 8.07198V4.44042C72.9747 2.36525 71.8457 1.13652 69.9805 1.13652H65.4403V20.523H67.2564ZM69.5143 10.2291H67.2564V2.80213H69.5143C70.6432 2.80213 71.1586 3.40284 71.1586 4.63156V8.39964C71.1586 9.62836 70.6432 10.2291 69.5143 10.2291ZM76.5087 20.523L77.0977 16.2362H80.9753L81.5643 20.523H83.3559L80.4845 1.13652H77.5885L74.6926 20.523H76.5087ZM80.7299 14.5706H77.3186L78.4475 6.46099L78.9874 2.93865H79.0856L79.601 6.46099L80.7299 14.5706ZM88.8041 20.523V2.80213H91.5283V1.13652H84.2884V2.80213H86.988V20.523H88.8041ZM94.8905 20.523V1.13652H93.0744V20.523H94.8905ZM102.105 20.523L104.904 1.13652H103.088L100.805 18.1748H100.757L98.5227 1.13652H96.6821L99.5044 20.523H102.105ZM113.076 20.523V18.8574H108.535V11.3213H112.732V9.65567H108.535V2.80213H113.076V1.13652H106.719V20.523H113.076ZM121.493 20.523V11.567H125.567V9.87411H121.493V2.80213H125.863V1.13652H119.677V20.523H121.493ZM132.292 20.6596C134.158 20.6596 135.262 19.4308 135.262 17.3557V1.13652H133.445V17.1645C133.445 18.3933 132.93 18.994 131.826 18.994H131.188C130.083 18.994 129.544 18.3933 129.544 17.1645V1.13652H127.728V17.3557C127.728 19.4308 128.856 20.6596 130.721 20.6596H132.292ZM139.361 20.523V9.13688L139.238 5.80567H139.286L143.557 20.523H145.324V1.13652H143.656V12.4681L143.777 15.8812H143.729L139.434 1.13652H137.691V20.523H139.361ZM152.318 20.523C154.184 20.523 155.312 19.2943 155.312 17.2191V4.44042C155.312 2.36525 154.184 1.13652 152.318 1.13652H147.779V20.523H152.318ZM151.852 18.8574H149.594V2.80213H151.852C152.981 2.80213 153.497 3.40284 153.497 4.63156V17.028C153.497 18.2567 152.981 18.8574 151.852 18.8574Z" fill="white"/>
<mask id="mask0" mask-type="alpha" maskUnits="userSpaceOnUse" x="0" y="0" width="157" height="21">
<path d="M156.312 0H0.3125V21H156.312V0Z" fill="white"/>
</mask>
<g mask="url(#mask0)">
<path fill-rule="evenodd" clip-rule="evenodd" d="M5.85274 20.6596C7.71792 20.6596 8.84684 19.4308 8.84684 17.3557V13.3145H7.03075V17.1372C7.03075 18.3933 6.51537 18.994 5.38644 18.994H4.74836C3.64397 18.994 3.1286 18.3933 3.1286 17.1372V4.52234C3.1286 3.26631 3.64397 2.6656 4.74836 2.6656H5.38644C6.51537 2.6656 7.03075 3.26631 7.03075 4.52234V7.79893H8.84684V4.3039C8.84684 2.22872 7.71792 1 5.85274 1H4.28206C2.41688 1 1.3125 2.22872 1.3125 4.3039V17.3557C1.3125 19.4308 2.41688 20.6596 4.28206 20.6596H5.85274ZM15.4241 20.6596C17.2892 20.6596 18.4182 19.4308 18.4182 17.3557V4.3039C18.4182 2.22872 17.2892 1 15.4241 1H13.8534C11.9882 1 10.8838 2.22872 10.8838 4.3039V17.3557C10.8838 19.4308 11.9882 20.6596 13.8534 20.6596H15.4241ZM14.9578 18.994H14.3197C13.2153 18.994 12.6999 18.3933 12.6999 17.1372V4.52234C12.6999 3.26631 13.2153 2.6656 14.3197 2.6656H14.9578C16.0867 2.6656 16.6021 3.26631 16.6021 4.52234V17.1372C16.6021 18.3933 16.0867 18.994 14.9578 18.994ZM26.6151 20.523V18.8574H22.5166V1.13652H20.7005V20.523H26.6151ZM34.3458 20.523V18.8574H30.2473V1.13652H28.4312V20.523H34.3458ZM37.3645 20.523L37.9535 16.2362H41.8311L42.4201 20.523H44.2116L41.3402 1.13652H38.4443L35.5484 20.523H37.3645ZM41.5856 14.5706H38.1743L39.3033 6.46099L39.8432 2.93865H39.9413L40.4567 6.46099L41.5856 14.5706ZM50.5925 20.523C52.4577 20.523 53.5866 19.2943 53.5866 17.2191V13.4511C53.5866 11.922 52.9731 10.8844 51.8932 10.4475C52.924 10.0106 53.4884 9.00035 53.4884 7.49858V4.44042C53.4884 2.36525 52.3841 1.13652 50.4943 1.13652H46.0523V20.523H50.5925ZM50.0771 9.68297H47.8684V2.80213H50.0771C51.1815 2.80213 51.6969 3.40284 51.6969 4.63156V7.85354C51.6969 9.08226 51.1815 9.68297 50.0771 9.68297ZM50.1262 18.8574H47.8684V11.2667H50.1262C51.2551 11.2667 51.7705 11.8674 51.7705 13.0961V17.028C51.7705 18.2567 51.2551 18.8574 50.1262 18.8574ZM60.1638 20.6596C62.029 20.6596 63.1579 19.4308 63.1579 17.3557V4.3039C63.1579 2.22872 62.029 1 60.1638 1H58.5931C56.728 1 55.6236 2.22872 55.6236 4.3039V17.3557C55.6236 19.4308 56.728 20.6596 58.5931 20.6596H60.1638ZM59.6975 18.994H59.0594C57.9551 18.994 57.4397 18.3933 57.4397 17.1372V4.52234C57.4397 3.26631 57.9551 2.6656 59.0594 2.6656H59.6975C60.8264 2.6656 61.3418 3.26631 61.3418 4.52234V17.1372C61.3418 18.3933 60.8264 18.994 59.6975 18.994ZM67.2564 20.523V11.8947H69.5143C70.6432 11.8947 71.1586 12.4954 71.1586 13.7241V20.523H72.9747V14.0245C72.9747 12.4135 72.3611 11.4578 71.1831 11.1028C72.312 10.6933 72.9747 9.65567 72.9747 8.07198V4.44042C72.9747 2.36525 71.8457 1.13652 69.9805 1.13652H65.4403V20.523H67.2564ZM69.5143 10.2291H67.2564V2.80213H69.5143C70.6432 2.80213 71.1586 3.40284 71.1586 4.63156V8.39964C71.1586 9.62836 70.6432 10.2291 69.5143 10.2291ZM76.5087 20.523L77.0977 16.2362H80.9753L81.5643 20.523H83.3559L80.4845 1.13652H77.5885L74.6926 20.523H76.5087ZM80.7299 14.5706H77.3186L78.4475 6.46099L78.9874 2.93865H79.0856L79.601 6.46099L80.7299 14.5706ZM88.8041 20.523V2.80213H91.5283V1.13652H84.2884V2.80213H86.988V20.523H88.8041ZM94.8905 20.523V1.13652H93.0744V20.523H94.8905ZM102.105 20.523L104.904 1.13652H103.088L100.805 18.1748H100.757L98.5227 1.13652H96.6821L99.5044 20.523H102.105ZM113.076 20.523V18.8574H108.535V11.3213H112.732V9.65567H108.535V2.80213H113.076V1.13652H106.719V20.523H113.076ZM121.493 20.523V11.567H125.567V9.87411H121.493V2.80213H125.863V1.13652H119.677V20.523H121.493ZM132.292 20.6596C134.157 20.6596 135.262 19.4308 135.262 17.3557V1.13652H133.445V17.1645C133.445 18.3933 132.931 18.994 131.826 18.994H131.188C130.084 18.994 129.544 18.3933 129.544 17.1645V1.13652H127.728V17.3557C127.728 19.4308 128.856 20.6596 130.721 20.6596H132.292ZM139.361 20.523V9.13688L139.238 5.80567H139.286L143.557 20.523H145.324V1.13652H143.656V12.4681L143.777 15.8812H143.729L139.434 1.13652H137.691V20.523H139.361ZM152.318 20.523C154.183 20.523 155.312 19.2943 155.312 17.2191V4.44042C155.312 2.36525 154.183 1.13652 152.318 1.13652H147.779V20.523H152.318ZM151.852 18.8574H149.594V2.80213H151.852C152.981 2.80213 153.497 3.40284 153.497 4.63156V17.028C153.497 18.2567 152.981 18.8574 151.852 18.8574Z" stroke="white" stroke-width="0.4"/>
</g>
<mask id="mask1" mask-type="alpha" maskUnits="userSpaceOnUse" x="1" y="1" width="155" height="20">
<path d="M5.85274 20.6596C7.71792 20.6596 8.84684 19.4308 8.84684 17.3557V13.3145H7.03075V17.1372C7.03075 18.3933 6.51537 18.994 5.38644 18.994H4.74836C3.64397 18.994 3.1286 18.3933 3.1286 17.1372V4.52234C3.1286 3.26631 3.64397 2.6656 4.74836 2.6656H5.38644C6.51537 2.6656 7.03075 3.26631 7.03075 4.52234V7.79893H8.84684V4.3039C8.84684 2.22872 7.71792 1 5.85274 1H4.28206C2.41688 1 1.3125 2.22872 1.3125 4.3039V17.3557C1.3125 19.4308 2.41688 20.6596 4.28206 20.6596H5.85274ZM15.4241 20.6596C17.2892 20.6596 18.4182 19.4308 18.4182 17.3557V4.3039C18.4182 2.22872 17.2892 1 15.4241 1H13.8534C11.9882 1 10.8838 2.22872 10.8838 4.3039V17.3557C10.8838 19.4308 11.9882 20.6596 13.8534 20.6596H15.4241ZM14.9578 18.994H14.3197C13.2153 18.994 12.6999 18.3933 12.6999 17.1372V4.52234C12.6999 3.26631 13.2153 2.6656 14.3197 2.6656H14.9578C16.0867 2.6656 16.6021 3.26631 16.6021 4.52234V17.1372C16.6021 18.3933 16.0867 18.994 14.9578 18.994ZM26.6151 20.523V18.8574H22.5166V1.13652H20.7005V20.523H26.6151ZM34.3458 20.523V18.8574H30.2473V1.13652H28.4312V20.523H34.3458ZM37.3645 20.523L37.9535 16.2362H41.8311L42.4201 20.523H44.2116L41.3402 1.13652H38.4443L35.5484 20.523H37.3645ZM41.5856 14.5706H38.1743L39.3033 6.46099L39.8432 2.93865H39.9413L40.4567 6.46099L41.5856 14.5706ZM50.5925 20.523C52.4577 20.523 53.5866 19.2943 53.5866 17.2191V13.4511C53.5866 11.922 52.9731 10.8844 51.8932 10.4475C52.924 10.0106 53.4884 9.00035 53.4884 7.49858V4.44042C53.4884 2.36525 52.3841 1.13652 50.4943 1.13652H46.0523V20.523H50.5925ZM50.0771 9.68297H47.8684V2.80213H50.0771C51.1815 2.80213 51.6969 3.40284 51.6969 4.63156V7.85354C51.6969 9.08226 51.1815 9.68297 50.0771 9.68297ZM50.1262 18.8574H47.8684V11.2667H50.1262C51.2551 11.2667 51.7705 11.8674 51.7705 13.0961V17.028C51.7705 18.2567 51.2551 18.8574 50.1262 18.8574ZM60.1638 20.6596C62.029 20.6596 63.1579 19.4308 63.1579 17.3557V4.3039C63.1579 2.22872 62.029 1 60.1638 1H58.5931C56.728 1 55.6236 2.22872 55.6236 4.3039V17.3557C55.6236 19.4308 56.728 20.6596 58.5931 20.6596H60.1638ZM59.6975 18.994H59.0594C57.9551 18.994 57.4397 18.3933 57.4397 17.1372V4.52234C57.4397 3.26631 57.9551 2.6656 59.0594 2.6656H59.6975C60.8264 2.6656 61.3418 3.26631 61.3418 4.52234V17.1372C61.3418 18.3933 60.8264 18.994 59.6975 18.994ZM67.2564 20.523V11.8947H69.5143C70.6432 11.8947 71.1586 12.4954 71.1586 13.7241V20.523H72.9747V14.0245C72.9747 12.4135 72.3611 11.4578 71.1831 11.1028C72.312 10.6933 72.9747 9.65567 72.9747 8.07198V4.44042C72.9747 2.36525 71.8457 1.13652 69.9805 1.13652H65.4403V20.523H67.2564ZM69.5143 10.2291H67.2564V2.80213H69.5143C70.6432 2.80213 71.1586 3.40284 71.1586 4.63156V8.39964C71.1586 9.62836 70.6432 10.2291 69.5143 10.2291ZM76.5087 20.523L77.0977 16.2362H80.9753L81.5643 20.523H83.3559L80.4845 1.13652H77.5885L74.6926 20.523H76.5087ZM80.7299 14.5706H77.3186L78.4475 6.46099L78.9874 2.93865H79.0856L79.601 6.46099L80.7299 14.5706ZM88.8041 20.523V2.80213H91.5283V1.13652H84.2884V2.80213H86.988V20.523H88.8041ZM94.8905 20.523V1.13652H93.0744V20.523H94.8905ZM102.105 20.523L104.904 1.13652H103.088L100.805 18.1748H100.757L98.5227 1.13652H96.6821L99.5044 20.523H102.105ZM113.076 20.523V18.8574H108.535V11.3213H112.732V9.65567H108.535V2.80213H113.076V1.13652H106.719V20.523H113.076ZM121.493 20.523V11.567H125.567V9.87411H121.493V2.80213H125.863V1.13652H119.677V20.523H121.493ZM132.292 20.6596C134.158 20.6596 135.262 19.4308 135.262 17.3557V1.13652H133.445V17.1645C133.445 18.3933 132.93 18.994 131.826 18.994H131.188C130.083 18.994 129.544 18.3933 129.544 17.1645V1.13652H127.728V17.3557C127.728 19.4308 128.856 20.6596 130.721 20.6596H132.292ZM139.361 20.523V9.13688L139.238 5.80567H139.286L143.557 20.523H145.324V1.13652H143.656V12.4681L143.777 15.8812H143.729L139.434 1.13652H137.691V20.523H139.361ZM152.318 20.523C154.184 20.523 155.312 19.2943 155.312 17.2191V4.44042C155.312 2.36525 154.184 1.13652 152.318 1.13652H147.779V20.523H152.318ZM151.852 18.8574H149.594V2.80213H151.852C152.981 2.80213 153.497 3.40284 153.497 4.63156V17.028C153.497 18.2567 152.981 18.8574 151.852 18.8574Z" fill="white"/>
</mask>
<g mask="url(#mask1)">
</g>
</svg>
