<svg width="136" height="27" viewBox="0 0 136 27" fill="none" xmlns="http://www.w3.org/2000/svg">
<g clip-path="url(#clip0)">
<path fill-rule="evenodd" clip-rule="evenodd" d="M13.129 11.4218V8.40473C12.8107 7.78996 11.129 5 6.84773 5C5.70187 5 1.84853 5.28938 0.3125 9.0085V18.1192C0.711892 19.0831 2.3355 22.1277 6.84773 22.1277C10.5151 22.1277 12.516 19.9798 13.129 18.6957V15.5156H9.54968L9.54092 17.3696L9.53401 17.3864C9.20652 18.1945 8.24895 19.0098 6.84773 19.0098C5.43845 19.0098 4.56684 18.1745 4.22092 17.3926L4.217 17.3836L4.20248 17.3041L4.21239 9.75582L4.22 9.73806C4.55901 8.93996 5.42739 8.08709 6.84773 8.08709C8.25817 8.08709 9.2139 8.91921 9.53516 9.74381L9.54023 9.76082L9.55014 9.82335V11.4218H13.129Z" fill="white"/>
<path fill-rule="evenodd" clip-rule="evenodd" d="M25.416 16.9709L25.409 16.9879C25.1058 17.7368 24.2275 18.6114 22.7511 18.6114C21.3209 18.6114 20.4419 17.776 20.096 16.9942L20.092 16.9852L20.0775 16.9057L20.0877 9.35738L20.095 9.33962C20.434 8.54152 21.3098 7.68865 22.7511 7.68865C24.2371 7.68865 25.1124 8.58104 25.4104 9.34537L25.4153 9.36263L25.4252 9.42516L25.416 16.9709ZM22.7511 4.60156C20.376 4.60156 17.4069 5.65477 16.1875 8.6098V17.721C16.9898 19.6621 19.1324 21.7293 22.7511 21.7293C25.1267 21.7293 28.0958 20.676 29.3152 17.721V8.6098C28.5129 6.66871 26.3703 4.60156 22.7511 4.60156Z" fill="white"/>
<path fill-rule="evenodd" clip-rule="evenodd" d="M47.1854 7.78291C48.5212 7.78291 49.0837 8.52298 49.3001 8.96417L49.305 8.97392L49.3223 9.04896V21.2718H53.2122V8.20559C52.8569 7.13812 51.7062 4.69531 48.6263 4.69531C46.4804 4.69531 45.2338 5.81905 44.566 6.76171L44.4127 6.9783L44.2645 6.75721C43.6386 5.81655 42.4706 4.69531 40.4623 4.69531C38.8855 4.69531 37.6309 5.26006 36.7335 6.37354L36.4041 6.78122V5.03296H32.7969V21.2718H36.6869V8.83336L36.7293 8.77709C37.2225 8.12655 37.9856 7.78291 38.9367 7.78291C40.322 7.78291 40.8774 8.60902 41.0519 8.96417L41.0565 8.97367L41.0738 9.04896V21.2718H44.9635V8.79935L45.0098 8.74182C45.2981 8.38367 45.9642 7.78291 47.1854 7.78291Z" fill="white"/>
<path fill-rule="evenodd" clip-rule="evenodd" d="M60.746 17.4414L60.6985 17.3834V8.92091L60.7463 8.86288C61.3077 8.17658 62.244 7.78291 63.3154 7.78291C64.6588 7.78291 65.5062 8.49947 65.824 9.11299L65.848 9.15926V17.1478L65.822 17.196C65.5496 17.6887 64.7215 18.5216 63.3438 18.5216C62.2544 18.5216 61.3077 18.1279 60.746 17.4414ZM64.8411 21.6092C68.2923 21.6092 69.5156 18.6422 69.738 18.0051V8.29939C69.5156 7.66211 68.2923 4.69531 64.8411 4.69531C62.7181 4.69531 61.4692 5.59521 60.7951 6.35029L60.4722 6.71169V5.03271H56.8086V26.0536L60.6985 24.7653V19.8824L61.0124 20.1898C61.9732 21.1315 63.2613 21.6092 64.8411 21.6092Z" fill="white"/>
<path fill-rule="evenodd" clip-rule="evenodd" d="M82.2802 16.9709L82.2733 16.9879C81.97 17.7368 81.092 18.6114 79.6154 18.6114C78.1854 18.6114 77.3061 17.776 76.9602 16.9942L76.9563 16.9852L76.9418 16.9057L76.9519 9.35738L76.9593 9.33962C77.2983 8.54152 78.1741 7.68865 79.6154 7.68865C81.1014 7.68865 81.9767 8.58104 82.2747 9.34537L82.2795 9.36263L82.2894 9.42516L82.2802 16.9709ZM79.6154 4.60156C77.2402 4.60156 74.2712 5.65477 73.0518 8.6098V17.721C73.854 19.6621 75.9967 21.7293 79.6154 21.7293C81.9915 21.7293 84.9607 20.676 86.179 17.721V8.6098C85.3776 6.66871 83.2355 4.60156 79.6154 4.60156Z" fill="white"/>
<path fill-rule="evenodd" clip-rule="evenodd" d="M102.365 21.2701V5.03125H98.4753V17.4126L98.4276 17.4707C98.0368 17.9491 97.2882 18.5201 95.9432 18.5201C94.3328 18.5201 93.681 17.5019 93.5195 17.1898L93.4953 17.1435V5.03125H89.6055V18.0344C89.9028 18.893 91.1084 21.6077 94.4176 21.6077C96.1769 21.6077 97.5551 21.0117 98.5143 19.8364L98.8429 19.4343V21.2701H102.365Z" fill="white"/>
<path fill-rule="evenodd" clip-rule="evenodd" d="M112.526 7.78291C113.87 7.78291 114.717 8.49947 115.035 9.11323L115.059 9.15925V21.2718H118.949V8.29938C118.726 7.6621 117.503 4.69531 114.052 4.69531C112.296 4.69531 110.86 5.31833 109.899 6.4971L109.57 6.89927V5.03296H106.02V21.2718H109.909V8.92115L109.957 8.86288C110.519 8.17658 111.455 7.78291 112.526 7.78291Z" fill="white"/>
<path fill-rule="evenodd" clip-rule="evenodd" d="M131.387 17.451L131.332 17.5108C130.741 18.1526 129.817 18.5207 128.798 18.5207C127.455 18.5207 126.607 17.8042 126.29 17.1907L126.265 17.1444V9.15588L126.292 9.10736C126.564 8.6149 127.392 7.78203 128.77 7.78203C130.212 7.78203 130.996 8.43682 131.335 8.82699L131.387 8.88576V17.451ZM135.277 21.2709V0.25L131.387 1.53832V6.41144L131.075 6.11631C130.082 5.1729 128.802 4.69444 127.273 4.69444C123.821 4.69444 122.598 7.66148 122.375 8.29851V18.0043C122.598 18.6416 123.821 21.6083 127.273 21.6083C128.945 21.6083 130.307 21.0509 131.321 19.9511L131.641 19.603V21.2709H135.277Z" fill="white"/>
</g>
<defs>
<clipPath id="clip0">
<rect width="135" height="27" fill="white" transform="translate(0.3125)"/>
</clipPath>
</defs>
</svg>
