<svg width="96" height="68" viewBox="0 0 96 68" fill="none" xmlns="http://www.w3.org/2000/svg">
<g clip-path="url(#clip0)">
<path d="M27.9345 27.8351V40.0773H29.9757C33.3792 40.0773 35.418 37.1211 35.418 33.9536C35.418 30.7887 33.3815 27.8325 29.978 27.8325H27.9369L27.9345 27.8351ZM30.4622 21.6392C37.9765 21.6392 42.3199 27.549 42.3199 33.951C42.3199 40.3531 38.0382 46.2603 30.4599 46.2603H21.1987V21.6366H30.4622V21.6392ZM68.1049 36.5567C67.3928 42.0799 63.2488 46.933 56.214 46.933C48.3484 46.933 43.7772 40.8119 43.7772 33.951C43.7772 27.1289 48.2511 20.9716 56.1546 20.9716C63.2156 20.9716 67.4593 25.8582 68.0455 31.7706H60.9775C60.593 29.451 58.9695 27.6211 56.1546 27.6211C52.5565 27.6211 50.6791 30.6108 50.6791 33.951C50.6791 37.5412 52.8508 40.2861 56.2187 40.2861C58.8105 40.2861 60.5289 38.6675 60.9822 36.5593H68.1096L68.1049 36.5567ZM82.4855 32.6134H95.2498V37.433H93.0781C92.2712 43.0979 88.1841 46.9356 81.7735 46.9356C73.8367 46.9356 69.5574 41.0232 69.5574 34.0954C69.5574 27.0593 73.9957 20.9768 81.7094 20.9768C88.0583 20.9768 92.461 25.1263 92.8835 30.1907H85.4309C85.2055 28.7861 83.9428 27.2397 81.6097 27.2397C78.1445 27.2397 76.4261 30.5747 76.4261 34.1649C76.4261 37.8247 78.2394 40.9175 81.9325 40.9175C84.5528 40.9175 85.9151 39.3402 86.2379 37.4381H82.4808V32.6186L82.4855 32.6134ZM0.3125 21.6392H14.4202V36.9613H0.3125V21.6392ZM81.1421 0H95.2498V15.3196H81.1421V0ZM48.8872 52.6804H62.9972V68H48.8896L48.8872 52.6804Z" fill="white"/>
</g>
<defs>
<clipPath id="clip0">
<rect width="95" height="68" fill="white" transform="translate(0.3125)"/>
</clipPath>
</defs>
</svg>
