<svg width="137" height="25" viewBox="0 0 137 25" fill="none" xmlns="http://www.w3.org/2000/svg">
<path d="M0 0H4.86868L14.1696 16.3193H14.2322V0H18.8195V24.326H13.9198L4.65063 8.04104H4.58809V24.326H0V0Z" fill="white"/>
<path d="M27.8643 6.23438C32.9514 6.23438 36.2288 9.9139 36.2288 15.535C36.2288 21.1221 32.9514 24.802 27.8643 24.802C22.808 24.802 19.5312 21.1225 19.5312 15.535C19.5312 9.9143 22.808 6.23438 27.8643 6.23438ZM27.8643 21.1572C30.8918 21.1572 31.7964 18.3295 31.7964 15.5357C31.7964 12.7084 30.8914 9.88069 27.8643 9.88069C24.8682 9.88069 23.9632 12.7084 23.9632 15.5357C23.9632 18.3291 24.8682 21.1572 27.8643 21.1572Z" fill="white"/>
<path d="M36.9375 6.71157H41.151V9.98219H41.2132C42.0246 7.76743 44.2096 6.23438 46.3632 6.23438C46.6756 6.23438 47.0498 6.30265 47.3308 6.40449V10.9015C46.9251 10.7992 46.2696 10.7309 45.7388 10.7309C42.4929 10.7309 41.3694 13.2867 41.3694 16.3868V24.3256H36.9375V6.71157Z" fill="white"/>
<path d="M52.6162 6.71205H55.8621V10.3576H52.6162V18.671C52.6162 20.3063 52.9904 20.7148 54.4885 20.7148C54.9564 20.7148 55.3938 20.6801 55.8621 20.5787V24.3608C55.1129 24.4958 54.1453 24.5305 53.271 24.5305C50.5559 24.5305 48.1836 23.8496 48.1836 20.3399V0H52.6158L52.6162 6.71205Z" fill="white"/>
<path d="M56.7122 0H61.1445V9.16442H61.2378C62.3616 7.18887 64.2964 6.23485 65.9506 6.23485C70.6631 6.23485 71.8498 9.13085 71.8498 13.4916V24.3257H67.4172V14.3774C67.4172 11.4814 66.6372 10.0505 64.5773 10.0505C62.1739 10.0505 61.1441 11.5153 61.1441 15.0934V24.326H56.7119L56.7122 0Z" fill="white"/>
<path d="M72.7031 20.6794L81.1011 10.3561H73.3275V6.71094H86.9374V10.3561L78.5411 20.6794H87.5303V24.3245H72.7031V20.6794Z" fill="white"/>
<path d="M95.294 6.2334C90.2377 6.2334 86.96 9.91439 86.96 15.5371C86.96 21.1219 90.2377 24.8026 95.294 24.8026C100.379 24.8026 103.656 21.1219 103.656 15.5371C103.656 9.91409 100.379 6.2334 95.294 6.2334ZM95.294 21.1593C92.2958 21.1593 91.3908 18.3289 91.3908 15.5367C91.3908 12.7101 92.2958 9.87969 95.294 9.87969C98.3201 9.87969 99.2252 12.7097 99.2252 15.5367C99.2252 18.3293 98.3205 21.1593 95.294 21.1593Z" fill="white"/>
<path d="M104.368 6.71157H108.582V9.16432H108.676C109.8 7.18877 111.735 6.23438 113.607 6.23438C118.32 6.23438 119.506 9.13074 119.506 13.4911V24.3252H115.074V14.3769C115.074 11.4809 114.293 10.0501 112.234 10.0501C109.83 10.0501 108.801 11.5148 108.801 15.0929V24.3256H104.368V6.71157Z" fill="white"/>
<path d="M124.647 16.6938C124.771 19.7607 126.145 21.1568 128.611 21.1568C130.39 21.1568 131.825 19.9636 132.106 18.8738H136.007C134.759 23.0301 132.106 24.802 128.455 24.802C123.367 24.802 120.215 20.9863 120.215 15.5353C120.215 10.2545 123.555 6.23438 128.455 6.23438C133.948 6.23438 136.601 11.2768 136.289 16.6938H124.647ZM131.857 13.6269C131.451 11.1742 130.483 9.87993 128.329 9.87993C125.52 9.87993 124.709 12.2644 124.647 13.6269H131.857Z" fill="white"/>
</svg>
