<svg width="111" height="31" viewBox="0 0 111 31" fill="none" xmlns="http://www.w3.org/2000/svg">
<g clip-path="url(#clip0)">
<path d="M24.1982 30.8806C21.1152 30.5321 19.1365 28.9941 18.3275 26.3267C18.0979 25.5697 18.0869 25.3174 18.0432 20.1267C17.9995 14.0348 18.0432 13.6023 18.7429 12.0403C19.2676 10.8747 20.0548 10.0096 21.1808 9.39687C22.4818 8.67594 23.4329 8.47168 25.4554 8.47168C27.4123 8.47168 28.4181 8.67594 29.6972 9.32478C30.6811 9.81741 31.829 11.0189 32.2663 12.0162C32.9223 13.5182 32.9441 13.7344 32.9441 19.7061C32.9441 24.6325 32.9223 25.2453 32.7473 25.9422C31.9274 29.1023 29.7847 30.7123 26.1114 30.9166C25.5429 30.9527 24.6792 30.9286 24.1982 30.8806ZM25.8927 24.0317C26.1441 23.8635 26.1988 15.8492 25.9474 15.4286C25.7506 15.0922 25.3351 15.0441 25.0837 15.3325C24.9306 15.4887 24.9088 16.0534 24.9088 19.598C24.9088 22.1934 24.9525 23.7674 25.0181 23.9236C25.1384 24.1639 25.6085 24.236 25.8927 24.0317Z" fill="white"/>
<path d="M47.125 30.867C46.3269 30.7229 45.8896 30.4946 45.3539 29.9659C44.3919 29.0167 44.042 27.743 44.042 25.2318C44.042 22.6605 44.2826 21.555 45.0478 20.6058C45.8022 19.6566 46.7861 19.1399 49.3333 18.3829C51.2793 17.7942 51.5526 17.674 51.9134 17.2535C52.143 16.9651 52.1867 16.7849 52.2304 15.9678C52.2742 14.8263 52.0883 14.3818 51.6073 14.4418C51.1809 14.4899 51.0388 14.9105 51.0388 16.1961V17.3015H47.5732H44.1186L44.1842 15.5232C44.2279 14.1655 44.2935 13.5647 44.4793 12.988C45.1243 10.8612 46.6112 9.4674 49.0163 8.74647C49.7706 8.53019 50.1751 8.49414 51.8587 8.49414C53.5095 8.49414 53.9578 8.53019 54.6684 8.74647C56.516 9.29918 57.7513 10.3085 58.4182 11.8225C59.1179 13.4085 59.1288 13.6128 59.1288 22.6484V30.7589H55.6851H52.2414L52.2304 28.8124C52.2304 27.0461 52.2086 26.9019 52.0883 27.3345C51.5089 29.3291 50.3173 30.5907 48.743 30.867C47.9449 31.0112 47.934 31.0112 47.125 30.867ZM52.0009 26.0008C52.2304 25.8205 52.2414 25.7605 52.2414 23.6577C52.2414 21.2787 52.2304 21.2306 51.5964 21.8194C51.1591 22.2279 51.0388 22.7446 51.0388 24.3667C51.0388 25.5562 51.0607 25.7364 51.2574 25.9527C51.5198 26.2411 51.6729 26.2531 52.0009 26.0008Z" fill="white"/>
<path d="M84.8214 30.88C81.5854 30.5315 79.4973 28.7652 78.8632 25.8214C78.732 25.1966 78.6992 24.0672 78.6992 19.6935C78.6992 14.7431 78.7211 14.2625 78.9179 13.4094C79.213 12.1478 79.6066 11.3788 80.4047 10.5017C81.1809 9.66063 82.0445 9.14396 83.3455 8.74745C84.0889 8.53117 84.5153 8.49512 86.1333 8.49512C87.7513 8.49512 88.1776 8.53117 88.9211 8.74745C91.1622 9.42032 92.4522 10.6458 93.2284 12.8327L93.5127 13.6377L93.5455 19.297C93.5783 24.1272 93.5564 25.0765 93.4034 25.7734C93.0098 27.6718 91.9493 29.1738 90.4735 29.9788C89.5005 30.4955 88.6805 30.7358 87.3358 30.88C86.1879 31.0001 86.013 31.0001 84.8214 30.88ZM86.5487 24.0071C86.6471 23.8989 86.6799 22.7575 86.6799 19.6214V15.38L86.4066 15.2358C86.1989 15.1396 86.0677 15.1396 85.86 15.2358L85.5867 15.38V19.6214C85.5867 22.7575 85.6195 23.8989 85.7178 24.0071C85.7944 24.0912 85.9802 24.1513 86.1333 24.1513C86.2863 24.1513 86.4722 24.0912 86.5487 24.0071Z" fill="white"/>
<path d="M0.3125 16.8199V2.88184L4.21538 2.90587L8.10733 2.94191L9.26617 9.09385L10.425 15.2338L10.4578 9.05781L10.4797 2.88184H13.7047H16.9298V16.8199V30.7578L13.1909 30.7338L9.46296 30.6978L8.08547 24.8943L6.70798 19.0908L6.67518 24.9183L6.65332 30.7578H3.48291H0.3125V16.8199Z" fill="white"/>
<path d="M37.0785 30.5309C36.1055 30.1704 35.3073 29.3894 34.8044 28.3321C34.1922 27.0464 34.2031 27.2987 34.2031 15.4755V4.56543H37.7562H41.3093V6.60806V8.6507H42.3478H43.3864V12.015V15.3793H42.3478H41.3093V18.9239C41.3093 23.0933 41.2656 22.9491 42.4026 22.9491H43.0584V26.8542V30.7592H40.3582C38.0405 30.7472 37.5595 30.7231 37.0785 30.5309Z" fill="white"/>
<path d="M63.2064 30.5309C61.8398 30.0142 60.8778 28.8367 60.4842 27.2146C60.3639 26.734 60.3311 24.391 60.3311 15.5956V4.56543H63.8295H67.3279V6.60806V8.6507H68.4211H69.5144V12.015V15.3793H68.4211H67.317L67.3498 18.9119C67.3935 23.0693 67.3607 22.9491 68.443 22.9491H69.0771V26.8542V30.7592H66.4314C64.1684 30.7472 63.6874 30.7231 63.2064 30.5309Z" fill="white"/>
<path d="M70.499 18.9824V7.20725L71.0565 7.67585C71.7453 8.25259 72.4887 8.52895 73.5601 8.61306C74.9376 8.7212 76.4681 8.24058 77.2006 7.4836L77.4957 7.15918V18.9584V30.7576H73.9974H70.499V18.9824Z" fill="white"/>
<path d="M94.7686 19.7052V8.65092H98.2123H101.656L101.667 11.1502V13.6374L101.874 12.556C102.29 10.3932 103.208 8.97534 104.454 8.57883C105.198 8.35053 106.422 8.3986 107.253 8.711C107.92 8.96333 108.707 9.73232 109.046 10.4653C109.68 11.8471 109.669 11.751 109.713 21.6638L109.757 30.7595H106.258H102.749V23.6223C102.749 17.2901 102.727 16.461 102.574 16.2928C102.344 16.0405 102.137 16.0525 101.874 16.3409C101.656 16.5812 101.656 16.7374 101.656 23.6703V30.7595H98.2123H94.7686V19.7052Z" fill="white"/>
<path d="M72.3664 7.43716C70.9998 6.95654 70.2455 5.69491 70.2344 3.9046C70.2236 1.52554 71.4153 0.167788 73.6564 0.0236014C75.0667 -0.0605072 76.0069 0.263912 76.7722 1.11701C77.45 1.86197 77.7124 2.63096 77.7124 3.83251C77.7124 4.986 77.4719 5.75499 76.8924 6.46391C76.2037 7.30499 75.5368 7.59336 74.1593 7.65344C73.2738 7.67747 72.9349 7.64143 72.3664 7.43716Z" fill="white"/>
</g>
<defs>
<clipPath id="clip0">
<rect width="110" height="31" fill="white" transform="translate(0.3125)"/>
</clipPath>
</defs>
</svg>
