<svg width="133" height="85" viewBox="0 0 133 85" fill="none" xmlns="http://www.w3.org/2000/svg">
<path opacity="0.08" d="M24.6314 79.8136L4.32901 5.209C4.18977 4.69733 4.68185 4.23952 5.18215 4.41526L70.5306 27.3705C70.9696 27.5247 71.1143 28.0734 70.8084 28.424L25.7624 80.0734C25.417 80.4695 24.7694 80.3208 24.6314 79.8136Z" stroke="black" stroke-width="7.89744"/>
<path fill-rule="evenodd" clip-rule="evenodd" d="M24.2998 34.2744V50.7274H28.2287V45.4624H30.5206C30.5206 45.4624 36.7414 45.4624 36.7414 39.8684C36.7414 34.2744 30.5206 34.2744 30.5206 34.2744H24.2998ZM28.2286 37.5645V42.1713H30.193C30.193 42.1713 32.8123 42.1713 32.8123 39.8679C32.8123 37.5645 30.193 37.5645 30.193 37.5645H28.2286Z" fill="black"/>
<path fill-rule="evenodd" clip-rule="evenodd" d="M37.3965 34.2734V50.7264H48.368C48.8675 50.7264 49.3239 50.4437 49.5464 49.9965L51.1477 46.7777H57.0411L58.6424 49.9965C58.8649 50.4437 59.3214 50.7264 59.8209 50.7264H62.2797L55.7315 34.2734H51.8026L46.564 48.094H41.3254V34.2734H37.3965ZM53.7667 37.5645L51.8022 44.1456H55.7311L53.7667 37.5645Z" fill="black"/>
<path d="M63.5887 44.1452L57.6953 34.2734H61.1363C61.6359 34.2734 62.0923 34.5562 62.3148 35.0034L65.5532 41.5128L69.1085 34.9618C69.3387 34.5376 69.7827 34.2734 70.2653 34.2734H73.411L67.5176 44.1452V50.7264H63.5887V44.1452Z" fill="black"/>
<path fill-rule="evenodd" clip-rule="evenodd" d="M91.092 34.2734H94.3661V45.4615C94.3661 48.3692 92.0089 50.7264 89.1012 50.7264H86.5082L87.0577 47.9655C87.1189 47.6576 87.3892 47.4358 87.7031 47.4358H89.7758C90.5027 47.4358 91.092 46.8465 91.092 46.1196V34.2734ZM72.7559 50.7268V34.2738H79.3041C79.3041 34.2738 87.1619 34.2738 87.1619 42.5003C87.1619 50.7268 79.3041 50.7268 79.3041 50.7268H72.7559ZM76.0307 48.0947V37.5648H79.8173C79.8173 37.5648 83.8886 37.5648 83.8886 42.8297C83.8886 48.0947 79.8173 48.0947 79.8173 48.0947H76.0307Z" fill="#E50000"/>
<path fill-rule="evenodd" clip-rule="evenodd" d="M96.9854 43.4868C98.0704 43.4868 98.9499 42.6029 98.9499 41.5124C98.9499 40.422 98.0704 39.5381 96.9854 39.5381C95.9005 39.5381 95.021 40.422 95.021 41.5124C95.021 42.6029 95.9005 43.4868 96.9854 43.4868ZM96.985 50.7265C98.0699 50.7265 98.9494 49.8425 98.9494 48.7521C98.9494 47.6617 98.0699 46.7778 96.985 46.7778C95.9 46.7778 95.0205 47.6617 95.0205 48.7521C95.0205 49.8425 95.9 50.7265 96.985 50.7265Z" fill="black"/>
<path d="M98.9492 37.564V34.2734H112.794C113.331 34.2734 113.814 34.5994 114.015 35.0973L118.594 46.4487L122.542 35.1553C122.727 34.6271 123.225 34.2734 123.784 34.2734H126.452L119.904 50.7264H116.957L111.718 37.564H107.462V50.7264H103.533V37.564H98.9492Z" fill="black"/>
<path d="M130.137 36.3166V36.1479H128.994V36.3166H129.469V37.564H129.663V36.3166H130.137Z" fill="black"/>
<path d="M130.581 36.1479H130.308V37.564H130.49V36.7282C130.49 36.6948 130.489 36.6427 130.487 36.572C130.486 36.5007 130.486 36.4477 130.486 36.413V36.3696L130.89 37.564H131.079L131.481 36.3696C131.481 36.4461 131.481 36.5177 131.479 36.5846C131.478 36.6514 131.477 36.6993 131.477 36.7282V37.564H131.659V36.1479H131.388L130.986 37.3452L130.581 36.1479Z" fill="black"/>
<path fill-rule="evenodd" clip-rule="evenodd" d="M133 36.9059C133 38.3598 131.828 39.5384 130.381 39.5384C128.934 39.5384 127.762 38.3598 127.762 36.9059C127.762 35.452 128.934 34.2734 130.381 34.2734C131.828 34.2734 133 35.452 133 36.9059ZM132.673 36.9059C132.673 38.1781 131.647 39.2093 130.381 39.2093C129.115 39.2093 128.089 38.1781 128.089 36.9059C128.089 35.6338 129.115 34.6025 130.381 34.6025C131.647 34.6025 132.673 35.6338 132.673 36.9059Z" fill="black"/>
</svg>
