<?xml version="1.0" encoding="UTF-8"?>
<svg width="142px" height="22px" viewBox="0 0 142 22" version="1.1" xmlns="http://www.w3.org/2000/svg" xmlns:xlink="http://www.w3.org/1999/xlink">
    <title>playdj</title>
    <g id="Page-1" stroke="none" stroke-width="1" fill="none" fill-rule="evenodd">
        <g id="playdj">
            <path d="M0.387976471,0.355105882 L0.387976471,21.6472235 L5.47243529,21.6472235 L5.47243529,14.8336941 L8.43842353,14.8336941 C8.43842353,14.8336941 16.4888706,14.8336941 16.4888706,7.5944 C16.4888706,0.355105882 8.43842353,0.355105882 8.43842353,0.355105882 L0.387976471,0.355105882 Z M5.47230588,4.61288235 L5.47230588,10.5746235 L8.01447059,10.5746235 C8.01447059,10.5746235 11.4041529,10.5746235 11.4041529,7.59375294 C11.4041529,4.61288235 8.01447059,4.61288235 8.01447059,4.61288235 L5.47230588,4.61288235 Z" id="Shape" fill="#000000"></path>
            <path d="M17.3366471,0.353811765 L17.3366471,21.6459294 L31.5350588,21.6459294 C32.1814706,21.6459294 32.7721059,21.2800824 33.0600471,20.7013529 L35.1323176,16.5358471 L42.7590706,16.5358471 L44.8313412,20.7013529 C45.1192824,21.2800824 45.7100471,21.6459294 46.3564588,21.6459294 L49.5384353,21.6459294 L41.0642941,0.353811765 L35.9798353,0.353811765 L29.2004706,18.2392941 L22.4211059,18.2392941 L22.4211059,0.353811765 L17.3366471,0.353811765 Z M38.5216118,4.61288235 L35.9793176,13.1296 L41.0637765,13.1296 L38.5216118,4.61288235 Z" id="Shape" fill="#000000"></path>
            <path d="M51.2324353,13.1290824 L43.6056824,0.353811765 L48.0587412,0.353811765 C48.7052824,0.353811765 49.2959176,0.719788235 49.5838588,1.29851765 L53.7747294,9.72244706 L58.3757059,1.24468235 C58.6736118,0.695717647 59.2482,0.353811765 59.8727412,0.353811765 L63.9436471,0.353811765 L56.3168941,13.1290824 L56.3168941,21.6459294 L51.2324353,21.6459294 L51.2324353,13.1290824 Z" id="Path" fill="#000000" fill-rule="nonzero"></path>
            <path d="M86.8249412,0.353811765 L91.0620118,0.353811765 L91.0620118,14.8325294 C91.0620118,18.5954353 88.0115176,21.6459294 84.2486118,21.6459294 L80.8929647,21.6459294 L81.6040824,18.073 C81.6832824,17.6745412 82.0330824,17.3875059 82.4393059,17.3875059 L85.1216235,17.3875059 C86.0623176,17.3875059 86.8249412,16.6248824 86.8249412,15.6841882 L86.8249412,0.353811765 Z M63.0958706,21.6464471 L63.0958706,0.354329412 L71.5700118,0.354329412 C71.5700118,0.354329412 81.7389294,0.354329412 81.7389294,11.0003882 C81.7389294,21.6464471 71.5700118,21.6464471 71.5700118,21.6464471 L63.0958706,21.6464471 Z M67.3338471,18.2402 L67.3338471,4.61327059 L72.2341529,4.61327059 C72.2341529,4.61327059 77.5028941,4.61327059 77.5028941,11.4266706 C77.5028941,18.2402 72.2341529,18.2402 72.2341529,18.2402 L67.3338471,18.2402 Z" id="Shape" fill="#E50000"></path>
            <path d="M94.4516941,12.2770353 C95.8558118,12.2770353 96.9939882,11.1331647 96.9939882,9.72192941 C96.9939882,8.31082353 95.8558118,7.16695294 94.4516941,7.16695294 C93.0477059,7.16695294 91.9095294,8.31082353 91.9095294,9.72192941 C91.9095294,11.1331647 93.0477059,12.2770353 94.4516941,12.2770353 Z M94.4511765,21.6460588 C95.8551647,21.6460588 96.9933412,20.5020588 96.9933412,19.0909529 C96.9933412,17.6798471 95.8551647,16.5359765 94.4511765,16.5359765 C93.0470588,16.5359765 91.9088824,17.6798471 91.9088824,19.0909529 C91.9088824,20.5020588 93.0470588,21.6460588 94.4511765,21.6460588 Z" id="Shape" fill="#000000"></path>
            <path d="M96.9930824,4.61223529 L96.9930824,0.353811765 L114.909882,0.353811765 C115.604824,0.353811765 116.229882,0.775694118 116.49,1.42003529 L122.415765,16.1100824 L127.524941,1.49509412 C127.764353,0.811541176 128.408824,0.353811765 129.132235,0.353811765 L132.584941,0.353811765 L124.111059,21.6459294 L120.297294,21.6459294 L113.517412,4.61223529 L108.009647,4.61223529 L108.009647,21.6459294 L102.925059,21.6459294 L102.925059,4.61223529 L96.9930824,4.61223529 Z" id="Path" fill="#000000" fill-rule="nonzero"></path>
            <polygon id="Path" fill="#000000" fill-rule="nonzero" points="137.353765 2.99795294 137.353765 2.77963529 135.874588 2.77963529 135.874588 2.99795294 136.489294 2.99795294 136.489294 4.61223529 136.740353 4.61223529 136.740353 2.99795294"></polygon>
            <path d="M137.928353,2.77963529 L137.575059,2.77963529 L137.575059,4.61223529 L137.810588,4.61223529 L137.810588,3.53061176 C137.810588,3.48738824 137.809294,3.41996471 137.806706,3.32847059 C137.805412,3.2362 137.805412,3.16761176 137.805412,3.12270588 L137.805412,3.06654118 L138.328235,4.61223529 L138.572824,4.61223529 L139.093059,3.06654118 C139.093059,3.16554118 139.093059,3.2582 139.090471,3.34477647 C139.089176,3.43122353 139.087882,3.49321176 139.087882,3.53061176 L139.087882,4.61223529 L139.323412,4.61223529 L139.323412,2.77963529 L138.972706,2.77963529 L138.452471,4.32908235 L137.928353,2.77963529 Z" id="Path" fill="#000000" fill-rule="nonzero"></path>
            <path d="M141.058824,3.76057647 C141.058824,5.64209412 139.542118,7.16734118 137.669529,7.16734118 C135.796941,7.16734118 134.280235,5.64209412 134.280235,3.76057647 C134.280235,1.87905882 135.796941,0.353811765 137.669529,0.353811765 C139.542118,0.353811765 141.058824,1.87905882 141.058824,3.76057647 Z M140.635647,3.76057647 C140.635647,5.40695294 139.307882,6.74144706 137.669529,6.74144706 C136.031176,6.74144706 134.703412,5.40695294 134.703412,3.76057647 C134.703412,2.11432941 136.031176,0.779705882 137.669529,0.779705882 C139.307882,0.779705882 140.635647,2.11432941 140.635647,3.76057647 Z" id="Shape" fill="#000000"></path>
        </g>
    </g>
</svg>