<svg width="112" height="28" viewBox="0 0 112 28" fill="none" xmlns="http://www.w3.org/2000/svg">
<path d="M27.7245 12.9546V0.631836H30.1511V10.8407H37.264V12.9546H27.7245Z" fill="white"/>
<path d="M38.7062 12.9546V0.631836H41.1329V12.9546H38.7062Z" fill="white"/>
<path d="M52.3521 0.631836H55.0161L50.2947 12.9546H47.1471L42.3202 0.631836H45.037L48.7736 10.4626L52.3521 0.631836Z" fill="white"/>
<path d="M56.2561 12.9546V7.87488H58.6828V5.70968H56.2561V0.631836H65.7957V2.74579H58.6828V5.70968H64.7142V7.87488H58.6828V10.8407H65.9803V12.9546H56.2561Z" fill="white"/>
<path d="M67.8006 12.9546V0.631836H73.4716C75.9246 0.631836 77.5248 1.84837 77.5248 4.27684C77.5248 6.43432 75.9246 7.88779 73.4716 7.88779H70.2273V12.9546H67.8006ZM70.2273 5.69698H73.199C74.4299 5.69698 75.0893 5.1149 75.0893 4.25122C75.0893 3.32151 74.4299 2.74579 73.199 2.74579H70.2273V5.69698Z" fill="white"/>
<path d="M79.1869 12.9546V7.87488H81.6135V5.70968H79.1869V0.631836H88.7264V2.74579H81.6135V5.70968H87.6449V7.87488H81.6135V10.8407H88.911V12.9546H79.1869Z" fill="white"/>
<path d="M90.7313 12.9546V7.87488H93.158V5.70968H90.7313V0.631836H100.271V2.74579H93.158V5.70968H99.1894V7.87488H93.158V10.8407H100.455V12.9546H90.7313Z" fill="white"/>
<path d="M102.276 12.9546V0.631836H108.131C110.35 0.632284 112 1.69461 112 3.70141C112 5.23015 111.297 6.1599 109.855 6.68409C111.165 6.68409 111.815 7.26844 111.815 8.42853V12.9546H109.389V9.02147C109.389 8.13636 109.125 7.87856 108.219 7.87856H104.702V12.9546H102.276ZM104.702 5.70509H107.41C108.826 5.70509 109.565 5.243 109.565 4.23372C109.565 3.22443 108.852 2.74579 107.41 2.74579H104.702V5.70509Z" fill="white"/>
<path d="M26.7639 23.2386H29.1136C29.1984 24.4675 30.1145 25.3788 31.8959 25.3788H32.0655C33.3379 25.3788 34.0505 24.7183 34.0505 23.9241C34.0505 23.1968 33.7196 22.8122 32.6763 22.6032L30.5047 22.1601C28.3756 21.717 27.3746 20.5299 27.3746 18.699C27.3407 16.8765 29.1051 15.0707 31.9807 15.1042C34.8648 15.0791 36.6122 16.7678 36.5868 19.0418H34.2371C34.1607 17.8296 33.27 17.1608 31.9807 17.1608H31.8026C30.5386 17.1608 29.7243 17.8379 29.7243 18.6154C29.7243 19.3929 30.1485 19.7608 31.2003 19.9698L33.0241 20.3292C35.1871 20.7556 36.3916 21.8675 36.3916 23.7485C36.4171 25.8051 34.6357 27.4521 31.7177 27.427C28.4434 27.427 26.8657 25.7717 26.7639 23.2386Z" fill="white"/>
<path d="M41.4342 27.2598V17.328H37.2353V15.2714H48.0082V17.328H43.7838V27.2598H41.4342Z" fill="white"/>
<path d="M49.3414 23.063V15.2714H51.6826V22.7202C51.6826 24.5846 52.4375 25.3788 54.0322 25.3788H54.2019C55.7881 25.3788 56.5516 24.5846 56.5516 22.7202V15.2714H58.8928V23.063C58.8928 25.872 57.3405 27.427 54.1171 27.427C50.8937 27.427 49.3414 25.872 49.3414 23.063Z" fill="white"/>
<path d="M60.8038 27.2598V15.2714H64.9687C68.6417 15.2546 71.161 17.4032 71.1356 21.2656C71.161 25.1363 68.7181 27.2849 65.062 27.2598H60.8038ZM63.145 25.2032H64.7991C66.063 25.2032 67.047 24.9022 67.7425 24.3003C68.4466 23.6984 68.7944 22.6868 68.7944 21.2656C68.7944 19.8527 68.4466 18.8411 67.7425 18.2392C67.047 17.6289 66.063 17.328 64.7991 17.328H63.145V25.2032Z" fill="white"/>
<path d="M72.3564 27.2598V15.2714H74.6976V27.2598H72.3564Z" fill="white"/>
<path d="M76.087 21.2656C76.0531 17.4868 78.53 15.0624 81.9909 15.1042C85.4518 15.0624 87.9457 17.4868 87.9033 21.2656C87.9457 25.0444 85.4518 27.4688 81.9909 27.427C78.53 27.4688 76.0531 25.0444 76.087 21.2656ZM81.9061 25.3788H82.0842C84.2473 25.3788 85.5536 23.8238 85.5536 21.2656C85.5536 18.699 84.2473 17.1608 82.0842 17.1608H81.9061C79.743 17.1608 78.4367 18.699 78.4367 21.2656C78.4367 23.8238 79.743 25.3788 81.9061 25.3788Z" fill="white"/>
<path d="M1.74701e-07 6.83208L0 2.87255H4.00769V6.83208H1.74701e-07Z" fill="white"/>
<path d="M7.35362 11.4427V7.48319H11.3613L11.3613 11.4427H7.35362Z" fill="white"/>
<path d="M14.7072 16.0584V12.0988H18.7149L18.7149 16.0584H14.7072Z" fill="white"/>
<path d="M7.35362 20.664V16.7045H11.3613L11.3613 20.664H7.35362Z" fill="white"/>
<path d="M1.74701e-07 25.2797L0 21.3201H4.00769V25.2797H1.74701e-07Z" fill="white"/>
<path d="M1.74701e-07 16.0584L0 12.0988H4.00769V16.0584H1.74701e-07Z" fill="white"/>
</svg>
